<svg width="18" height="18" viewBox="0 0 18 18" fill="none" xmlns="http://www.w3.org/2000/svg">
<path d="M10.1967 13.9914C10.0914 13.8859 10.0322 13.743 10.0322 13.5939C10.0322 13.4449 10.0914 13.3019 10.1967 13.1964L13.9242 9.46892L3.09424 9.46892C2.94506 9.46892 2.80199 9.40965 2.6965 9.30416C2.59101 9.19867 2.53174 9.0556 2.53174 8.90642C2.53174 8.75723 2.59101 8.61416 2.6965 8.50867C2.80199 8.40318 2.94506 8.34392 3.09424 8.34392L13.9242 8.34392L10.1967 4.61642C10.1227 4.54766 10.0686 4.46021 10.0401 4.36328C10.0116 4.26634 10.0097 4.16351 10.0347 4.06561C10.0598 3.96772 10.1107 3.87839 10.1823 3.80704C10.2538 3.73568 10.3433 3.68494 10.4412 3.66017C10.539 3.63511 10.6418 3.63685 10.7386 3.66523C10.8355 3.6936 10.9229 3.74756 10.9917 3.82142L15.6792 8.50892C15.7846 8.61439 15.8437 8.75735 15.8437 8.90642C15.8437 9.05548 15.7846 9.19845 15.6792 9.30392L10.9917 13.9914C10.8863 14.0968 10.7433 14.1559 10.5942 14.1559C10.4452 14.1559 10.3022 14.0968 10.1967 13.9914Z" fill="white"/>
</svg>
