<svg width="185" height="54" viewBox="0 0 185 54" fill="none" xmlns="http://www.w3.org/2000/svg">
<g clip-path="url(#clip0_3745_1244)">
<path d="M83.8873 32.3366L82.6364 29.3811H73.9154L72.6644 32.3366H68.5898L76.2386 15.1802H80.3846L88.0334 32.3366H83.8873ZM81.2067 26.0291L78.2759 19.0728L75.345 26.0291H81.2067Z" fill="#95A1E4"/>
<path d="M89.3912 20.2625H92.6437L92.8939 21.5961C93.6445 20.5148 94.7167 19.9741 96.1107 19.9741C97.2544 19.9741 98.2194 20.3345 99.0415 21.0915L97.5761 23.9028C97.0042 23.5063 96.3609 23.2901 95.646 23.2901C94.8597 23.2901 94.1806 23.5424 93.6445 24.047C93.1084 24.5516 92.8582 25.2364 92.8582 26.1014V32.4089H89.3555V20.2625H89.3912Z" fill="#95A1E4"/>
<path d="M111.586 32.3367H108.119V25.8489C108.119 24.0828 107.44 23.2178 106.046 23.2178C105.367 23.2178 104.866 23.4701 104.473 24.0107C104.08 24.5514 103.901 25.1641 103.901 25.885V32.3727H100.398V20.2262H103.472L103.722 21.5959C104.33 20.5146 105.402 19.9379 106.868 19.9379C108.548 19.9379 109.691 20.6948 110.37 22.2086C110.907 21.3796 111.478 20.8029 112.086 20.4425C112.694 20.0821 113.444 19.9019 114.338 19.9019C115.767 19.9019 116.911 20.3344 117.805 21.2354C118.698 22.1005 119.127 23.6143 119.127 25.7048V32.3367H115.589V25.7769C115.589 24.0828 114.981 23.2538 113.766 23.2538C113.087 23.2538 112.551 23.5061 112.157 24.0107C111.764 24.5153 111.55 25.1281 111.55 25.8489V32.3367H111.586Z" fill="#95A1E4"/>
<path d="M122.203 15.1802H125.992V28.8404H134.498V32.3366H122.203V15.1802Z" fill="#95A1E4"/>
<path d="M136.748 18.4962C136.319 18.1357 136.141 17.6311 136.141 17.0184C136.141 16.4057 136.355 15.9011 136.748 15.5406C137.177 15.1802 137.606 15 138.106 15C138.607 15 139.071 15.1802 139.465 15.5406C139.894 15.9011 140.072 16.4057 140.072 17.0184C140.072 17.6311 139.858 18.1357 139.465 18.4962C139.036 18.8566 138.607 19.0368 138.106 19.0368C137.606 19.0368 137.177 18.8566 136.748 18.4962ZM139.894 20.1902H136.391V32.3366H139.894V20.1902Z" fill="#95A1E4"/>
<path d="M155.012 32.3368H151.473V25.9212C151.473 24.0469 150.651 23.1098 149.007 23.1098C148.221 23.1098 147.577 23.3621 147.041 23.9748C146.541 24.5515 146.291 25.2724 146.291 26.0653V32.3007H142.859V20.2264H146.005L146.112 21.7762C147.077 20.5147 148.364 19.902 150.008 19.938C153.332 19.938 155.012 21.9204 155.012 25.9212V32.3368Z" fill="#95A1E4"/>
<path d="M157.3 33.9948H160.552C160.66 35.6167 161.66 36.4457 163.555 36.4457C164.377 36.4457 165.092 36.2655 165.663 35.869C166.235 35.4725 166.521 34.9319 166.521 34.211C166.521 32.8054 165.556 32.1205 163.59 32.1205C161.625 32.1205 160.052 31.5799 158.872 30.4626C157.693 29.3452 157.121 27.8675 157.121 26.0293C157.121 24.083 157.764 22.5331 159.015 21.4879C160.266 20.4426 161.803 19.866 163.626 19.866C164.877 19.866 165.806 20.0822 166.45 20.5147L167.772 18.7847L170.31 20.731L168.773 22.5692C169.631 23.6144 170.06 24.8038 170.024 26.0653C169.988 28.0117 169.13 29.4534 167.45 30.3184C169.238 31.1113 170.131 32.4089 170.131 34.211C170.131 35.9051 169.488 37.2386 168.201 38.1397C166.914 39.0768 165.377 39.5454 163.59 39.5454C161.517 39.5454 159.98 39.0768 158.872 38.1037C157.764 37.1305 157.264 35.7609 157.3 33.9948ZM163.626 23.0017C162.697 23.0017 161.946 23.254 161.374 23.7946C160.802 24.3353 160.517 25.0922 160.517 26.0293C160.517 26.8943 160.803 27.5791 161.41 28.1198C162.018 28.6604 162.733 28.9127 163.626 28.9127C164.484 28.9127 165.199 28.6604 165.771 28.1558C166.342 27.6512 166.628 26.9304 166.628 26.0293C166.628 25.1643 166.342 24.4434 165.771 23.8667C165.199 23.29 164.484 23.0017 163.626 23.0017Z" fill="#95A1E4"/>
<path d="M178.389 32.5891C176.387 32.5891 174.815 32.0124 173.6 30.823C172.42 29.6696 171.812 28.1558 171.812 26.2815C171.812 24.4434 172.42 22.9296 173.635 21.7401C174.851 20.5507 176.423 19.938 178.389 19.938C180.355 19.938 181.963 20.5507 183.178 21.7401C184.394 22.9296 185.001 24.4434 185.001 26.2815C185.001 28.1558 184.394 29.6696 183.214 30.823C181.999 32.0124 180.426 32.5891 178.389 32.5891ZM178.389 29.4533C179.39 29.4533 180.14 29.165 180.676 28.5522C181.177 27.9395 181.427 27.1826 181.427 26.3176C181.427 25.4526 181.177 24.7317 180.641 24.0829C180.105 23.4342 179.354 23.1098 178.389 23.1098C177.424 23.1098 176.673 23.4342 176.137 24.0829C175.601 24.7317 175.351 25.4526 175.351 26.3176C175.351 27.1826 175.601 27.9035 176.102 28.5522C176.673 29.165 177.424 29.4533 178.389 29.4533Z" fill="#95A1E4"/>
<path d="M30.2812 51.4165V52.1341C30.2812 52.1341 42.9835 38.6431 56.6821 47.1827L56.5754 45.281C53.7289 43.7381 50.8824 43.0923 48.2139 43.0923C40.1015 43.0923 33.1633 48.7255 30.2812 51.4165Z" fill="#505CA0"/>
<path d="M1.92315 45.1736L1.81641 47.147C15.5505 38.6075 28.2173 52.0985 28.2173 52.0985V51.5244C25.442 48.8693 18.397 43.0566 10.1423 43.0566C7.50931 43.0925 4.73402 43.6666 1.92315 45.1736Z" fill="#505CA0"/>
<path fill-rule="evenodd" clip-rule="evenodd" d="M10.3551 12.0558H10.0705C9.75025 12.0558 9.39444 12.0558 9.07422 12.0917L15.8345 6.81728L23.0574 10.9076L37.4676 0L50.9171 12.2711C50.7747 12.2532 50.6235 12.2352 50.4723 12.2173C50.3211 12.1993 50.1699 12.1814 50.0275 12.1635L38.2156 3.53338L35.3672 7.06863L36.0312 3.49722L23.2709 12.594L15.7634 8.89834L10.3551 12.0558Z" fill="#505CA0"/>
<path d="M48.3189 12.3428C38.4275 12.3428 30.1728 20.7388 29.1766 21.7793C28.2159 20.7388 19.9612 12.3428 10.0342 12.3428C6.51168 12.3428 3.09594 13.4192 -0.0351562 15.5361V45.9627C3.13152 43.8458 6.54726 42.7693 10.1409 42.7693C18.3245 42.7693 25.405 48.4743 28.287 51.2012L28.2515 52.0983C28.3938 51.9547 28.5361 51.8112 28.714 51.6318C28.8919 51.8112 29.0342 51.9547 29.1766 52.0983V51.2371C32.2365 48.5102 39.9931 42.7693 48.2122 42.7693C51.7703 42.7693 55.186 43.8458 58.3883 45.9627V15.5361C55.2572 13.4192 51.877 12.3428 48.3189 12.3428Z" fill="#505CA0"/>
<path d="M18.8261 23.6091C20.3588 23.6091 21.6014 22.3561 21.6014 20.8104C21.6014 19.2647 20.3588 18.0117 18.8261 18.0117C17.2933 18.0117 16.0508 19.2647 16.0508 20.8104C16.0508 22.3561 17.2933 23.6091 18.8261 23.6091Z" fill="#95A1E4"/>
<path d="M40.1031 25.9414C42.0244 26.2643 43.6255 24.6139 43.3409 22.6763C43.163 21.5281 42.2023 20.5594 41.0637 20.38C39.1424 20.057 37.5413 21.7075 37.8259 23.6451C38.0038 24.7933 38.9289 25.762 40.1031 25.9414Z" fill="#95A1E4"/>
<path d="M29.0377 38.9661C30.4253 39.289 31.6351 38.0691 31.3148 36.6697C31.1725 35.9521 30.6032 35.4139 29.8916 35.2345C28.504 34.9116 27.2942 36.1315 27.6144 37.5308C27.7568 38.2485 28.326 38.7867 29.0377 38.9661Z" fill="#95A1E4"/>
<path d="M44.4426 31.395L51.3809 25.403C51.9146 24.9365 51.9857 24.1113 51.5232 23.5731L51.3809 23.4296C50.9183 22.8914 50.1 22.8196 49.5662 23.286L44.7273 27.484C43.7666 28.3093 42.5213 28.7757 41.2404 28.7757H37.8958C37.5044 28.7757 37.1842 28.9551 36.9707 29.2422C36.7928 29.3498 36.6505 29.4933 36.5437 29.6727L33.3059 36.1312C32.9857 36.7412 32.6299 37.3153 32.1673 37.8176L30.6729 39.5399C30.6018 39.5399 30.5662 39.504 30.495 39.504H28.4669C28.4313 39.504 28.3602 39.504 28.3246 39.504L27.1504 38.1764C26.4744 37.387 25.9407 36.49 25.5849 35.4854L22.7384 27.2688C22.6673 27.0535 22.525 26.8741 22.3826 26.7306C22.1692 26.4794 21.8489 26.3359 21.4931 26.3359H18.113C16.8321 26.3359 15.6223 25.8694 14.6616 25.0442L9.78709 20.8821C9.25338 20.4156 8.43502 20.4874 7.97247 21.0256L7.83015 21.1691C7.3676 21.7073 7.43876 22.5325 7.97247 22.999L14.9463 28.991V29.9598C14.9463 29.9598 14.9463 29.9598 14.9463 29.9957V30.0316V39.8628C14.9463 39.8987 14.9463 39.9345 14.9463 39.9704C14.9463 40.0063 14.9463 40.0422 14.9463 40.0781V52.0621C14.9463 52.9233 15.5156 53.7126 16.3695 53.9279C17.5437 54.1791 18.6111 53.2821 18.6111 52.1339V42.805H19.0736V52.0621C19.0736 52.9233 19.6429 53.7126 20.4969 53.9279C21.671 54.1791 22.7384 53.2821 22.7384 52.1339V40.0781C22.7384 40.0422 22.7384 40.0063 22.7384 39.9704C22.7384 39.9345 22.7384 39.8987 22.7384 39.8628V34.409L23.3433 36.203C23.9482 37.9252 24.98 39.4681 26.3321 40.688C26.7235 41.0468 27.0081 41.2262 27.0081 41.2262L27.0437 41.2621C27.2216 41.4774 27.3283 41.7644 27.3283 42.0156V43.2355L26.1898 48.4382H27.0437V52.8515C27.0437 53.3179 27.3283 53.7485 27.7553 53.892C28.5025 54.1432 29.1785 53.5691 29.1785 52.8874V48.4382H29.2853H29.4276V52.8515C29.4276 53.3179 29.7122 53.7485 30.1392 53.892C30.8864 54.1432 31.5624 53.5691 31.5624 52.8874V48.4382H32.5587L31.5624 44.0249V42.2309C31.5624 41.908 31.7403 41.4415 31.9538 41.2262C31.9538 41.2262 32.701 40.5445 33.4838 39.7193C34.3377 38.894 35.0493 37.8894 35.5831 36.8488L36.6505 34.696V35.3777L35.2628 46.7877H36.864V52.2056C36.864 53.2103 37.6823 54.0355 38.6786 54.0355C39.6748 54.0355 40.4932 53.2103 40.4932 52.2056V46.7877H40.7067H40.9202V52.2056C40.9202 53.2103 41.7385 54.0355 42.7348 54.0355C43.731 54.0355 44.5494 53.2103 44.5494 52.2056V46.7877H45.9014L44.3359 34.0143V32.4355V32.3997C44.3359 32.3997 44.3359 32.3997 44.3359 32.3638V31.395H44.4426Z" fill="#95A1E4"/>
</g>
<defs>
<clipPath id="clip0_3745_1244">
<rect width="185" height="54" fill="white"/>
</clipPath>
</defs>
</svg>
