<svg width="31" height="30" viewBox="0 0 31 30" fill="none" xmlns="http://www.w3.org/2000/svg">
<path d="M16.7857 2.5C18.192 2.50375 18.9057 2.51125 19.522 2.52875L19.7645 2.5375C20.0445 2.5475 20.3207 2.56 20.6545 2.575C21.9845 2.6375 22.892 2.8475 23.6882 3.15625C24.5132 3.47375 25.2082 3.90375 25.9032 4.5975C26.5391 5.22217 27.0309 5.97809 27.3445 6.8125C27.6532 7.60875 27.8632 8.51625 27.9257 9.8475C27.9407 10.18 27.9532 10.4563 27.9632 10.7375L27.9707 10.98C27.9895 11.595 27.997 12.3088 27.9995 13.715L28.0007 14.6475V16.285C28.0038 17.1968 27.9942 18.1085 27.972 19.02L27.9645 19.2625C27.9545 19.5437 27.942 19.82 27.927 20.1525C27.8645 21.4837 27.652 22.39 27.3445 23.1875C27.0309 24.0219 26.5391 24.7778 25.9032 25.4025C25.2785 26.0384 24.5226 26.5302 23.6882 26.8438C22.892 27.1525 21.9845 27.3625 20.6545 27.425L19.7645 27.4625L19.522 27.47C18.9057 27.4875 18.192 27.4963 16.7857 27.4988L15.8532 27.5H14.217C13.3048 27.5032 12.3926 27.4936 11.4807 27.4712L11.2382 27.4638C10.9415 27.4525 10.6448 27.4396 10.3482 27.425C9.01821 27.3625 8.11071 27.1525 7.31321 26.8438C6.47925 26.5301 5.72376 26.0382 5.09946 25.4025C4.46314 24.778 3.97085 24.022 3.65696 23.1875C3.34821 22.3912 3.13821 21.4837 3.07571 20.1525L3.03821 19.2625L3.03196 19.02C3.00892 18.1085 2.9985 17.1968 3.00071 16.285V13.715C2.99725 12.8033 3.00642 11.8915 3.02821 10.98L3.03696 10.7375C3.04696 10.4563 3.05946 10.18 3.07446 9.8475C3.13696 8.51625 3.34696 7.61 3.65571 6.8125C3.97033 5.97775 4.46349 5.2218 5.10071 4.5975C5.72465 3.96194 6.4797 3.47009 7.31321 3.15625C8.11071 2.8475 9.01696 2.6375 10.3482 2.575C10.6807 2.56 10.9582 2.5475 11.2382 2.5375L11.4807 2.53C12.3922 2.50779 13.304 2.49821 14.2157 2.50125L16.7857 2.5ZM15.5007 8.75C13.8431 8.75 12.2534 9.40848 11.0813 10.5806C9.90919 11.7527 9.25071 13.3424 9.25071 15C9.25071 16.6576 9.90919 18.2473 11.0813 19.4194C12.2534 20.5915 13.8431 21.25 15.5007 21.25C17.1583 21.25 18.748 20.5915 19.9201 19.4194C21.0922 18.2473 21.7507 16.6576 21.7507 15C21.7507 13.3424 21.0922 11.7527 19.9201 10.5806C18.748 9.40848 17.1583 8.75 15.5007 8.75ZM15.5007 11.25C15.9932 11.2499 16.4808 11.3468 16.9358 11.5352C17.3908 11.7236 17.8043 11.9997 18.1525 12.3479C18.5008 12.6961 18.7771 13.1094 18.9656 13.5644C19.1542 14.0193 19.2513 14.5069 19.2513 14.9994C19.2514 15.4918 19.1545 15.9795 18.9661 16.4345C18.7777 16.8895 18.5016 17.3029 18.1534 17.6512C17.8053 17.9995 17.3919 18.2758 16.937 18.4643C16.482 18.6528 15.9944 18.7499 15.502 18.75C14.5074 18.75 13.5536 18.3549 12.8503 17.6517C12.147 16.9484 11.752 15.9946 11.752 15C11.752 14.0054 12.147 13.0516 12.8503 12.3483C13.5536 11.6451 14.5074 11.25 15.502 11.25M22.0645 6.875C21.6501 6.875 21.2526 7.03962 20.9596 7.33265C20.6666 7.62567 20.502 8.0231 20.502 8.4375C20.502 8.8519 20.6666 9.24933 20.9596 9.54235C21.2526 9.83538 21.6501 10 22.0645 10C22.4789 10 22.8763 9.83538 23.1693 9.54235C23.4623 9.24933 23.627 8.8519 23.627 8.4375C23.627 8.0231 23.4623 7.62567 23.1693 7.33265C22.8763 7.03962 22.4789 6.875 22.0645 6.875Z" fill="#95A1E4"/>
</svg>
