<svg width="25" height="24" viewBox="0 0 25 24" fill="none" xmlns="http://www.w3.org/2000/svg">
<g clip-path="url(#clip0_3745_1291)">
<mask id="mask0_3745_1291" style="mask-type:luminance" maskUnits="userSpaceOnUse" x="0" y="0" width="25" height="24">
<path d="M0.5 0H24.5V24H0.5V0Z" fill="white"/>
</mask>
<g mask="url(#mask0_3745_1291)">
<path d="M14.7611 0.176943L14.0411 0.0758899C11.8772 -0.236542 9.66907 0.0725493 7.67415 0.967131C5.67923 1.86171 3.9797 3.30493 2.77368 5.12852C1.49051 6.87165 0.725581 8.94166 0.566921 11.1003C0.408261 13.259 0.862319 15.4186 1.87684 17.3306C1.98067 17.5223 2.04531 17.7326 2.067 17.9495C2.08869 18.1664 2.06698 18.3854 2.00316 18.5938C1.48526 20.3748 1.00526 22.1685 0.5 24.0506L1.13158 23.8612C2.83684 23.4064 4.5421 22.9517 6.24737 22.5348C6.60729 22.46 6.98141 22.4952 7.32105 22.6359C8.85098 23.3826 10.5229 23.7934 12.2247 23.8407C13.9265 23.888 15.6186 23.5708 17.1877 22.9103C18.7568 22.2498 20.1664 21.2613 21.322 20.0112C22.4776 18.7611 23.3525 17.2782 23.8878 15.6622C24.4232 14.0461 24.6066 12.3343 24.4259 10.6415C24.2452 8.94866 23.7045 7.31409 22.8401 5.84746C21.9757 4.38082 20.8076 3.11605 19.4142 2.13803C18.0207 1.16 16.4342 0.491348 14.7611 0.176943ZM17.9442 16.7496C17.4851 17.1606 16.9253 17.4426 16.3218 17.5669C15.7182 17.6911 15.0925 17.6532 14.5084 17.4569C11.862 16.7106 9.566 15.0501 8.02842 12.7706C7.44127 11.9642 6.96937 11.0799 6.62631 10.1433C6.44044 9.59981 6.40693 9.01585 6.5294 8.45471C6.65187 7.89357 6.92565 7.37668 7.32105 6.9601C7.51354 6.71444 7.77555 6.53243 8.07295 6.43781C8.37036 6.34318 8.68936 6.34031 8.98842 6.42957C9.24105 6.49273 9.41789 6.85905 9.64526 7.13694C9.83052 7.65905 10.0453 8.16852 10.2895 8.66536C10.4744 8.91864 10.5517 9.2348 10.5043 9.54482C10.457 9.85485 10.2889 10.1336 10.0368 10.3201C9.46842 10.8254 9.55684 11.2422 9.96105 11.8106C10.8542 13.0984 12.0874 14.113 13.5232 14.7412C13.9274 14.918 14.2305 14.9559 14.4958 14.539C14.6095 14.3748 14.7611 14.2359 14.8874 14.0843C15.62 13.1622 15.3926 13.1748 16.5547 13.6801C16.9253 13.8359 17.2832 14.0169 17.6284 14.2233C17.9695 14.4254 18.4874 14.6401 18.5632 14.9433C18.6361 15.2721 18.6169 15.6148 18.5077 15.9335C18.3985 16.2521 18.2035 16.5345 17.9442 16.7496Z" fill="#95A1E4"/>
</g>
</g>
<defs>
<clipPath id="clip0_3745_1291">
<rect width="24" height="24" fill="white" transform="translate(0.5)"/>
</clipPath>
</defs>
</svg>
