<svg width="101" height="100" viewBox="0 0 101 100" fill="none" xmlns="http://www.w3.org/2000/svg">
<g clip-path="url(#clip0_3709_329)">
<mask id="mask0_3709_329" style="mask-type:luminance" maskUnits="userSpaceOnUse" x="22" y="22" width="77" height="76">
<path d="M60.4993 93.3334C78.9093 93.3334 93.8327 78.4101 93.8327 60.0001C93.8327 41.5901 78.9093 26.6667 60.4993 26.6667C42.0893 26.6667 27.166 41.5901 27.166 60.0001C27.166 78.4101 42.0893 93.3334 60.4993 93.3334Z" fill="white" stroke="white" stroke-width="9" stroke-linejoin="round"/>
<path d="M60.5117 40V60.0167L74.6434 74.15" stroke="black" stroke-width="9" stroke-linecap="round" stroke-linejoin="round"/>
</mask>
<g mask="url(#mask0_3709_329)">
<path d="M20.5 20H100.5V100H20.5V20Z" fill="#76B5FF"/>
</g>
<g clip-path="url(#clip1_3709_329)">
<circle cx="25.5" cy="31" r="25" fill="#313B78"/>
<path d="M24.0932 38.5207L17.8535 32.2795L19.9329 30.2001L24.0932 34.3589L32.4109 26.0398L34.4917 28.1207L24.0932 38.5207Z" fill="#CF37E3"/>
<path fill-rule="evenodd" clip-rule="evenodd" d="M10.5 31C10.5 22.7159 17.2159 16 25.5 16C33.7841 16 40.5 22.7159 40.5 31C40.5 39.2841 33.7841 46 25.5 46C17.2159 46 10.5 39.2841 10.5 31ZM25.5 43.2727C23.8883 43.2727 22.2924 42.9553 20.8034 42.3385C19.3144 41.7218 17.9615 40.8178 16.8219 39.6781C15.6822 38.5385 14.7782 37.1856 14.1615 35.6966C13.5447 34.2076 13.2273 32.6117 13.2273 31C13.2273 29.3883 13.5447 27.7924 14.1615 26.3034C14.7782 24.8144 15.6822 23.4615 16.8219 22.3219C17.9615 21.1822 19.3144 20.2782 20.8034 19.6615C22.2924 19.0447 23.8883 18.7273 25.5 18.7273C28.7549 18.7273 31.8765 20.0203 34.1781 22.3219C36.4797 24.6235 37.7727 27.7451 37.7727 31C37.7727 34.2549 36.4797 37.3765 34.1781 39.6781C31.8765 41.9797 28.7549 43.2727 25.5 43.2727Z" fill="#CF37E3"/>
</g>
</g>
<defs>
<clipPath id="clip0_3709_329">
<rect width="100" height="100" fill="white" transform="translate(0.5)"/>
</clipPath>
<clipPath id="clip1_3709_329">
<rect width="50" height="50" fill="white" transform="translate(0.5 6)"/>
</clipPath>
</defs>
</svg>
