<svg width="100" height="100" viewBox="0 0 100 100" fill="none" xmlns="http://www.w3.org/2000/svg">
<path fill-rule="evenodd" clip-rule="evenodd" d="M55.7221 51.1252C57.1018 49.7456 59.0067 48.8927 61.1109 48.8927C63.215 48.8927 65.12 49.7456 66.4996 51.1252C67.8793 52.5049 68.7322 54.4098 68.7322 56.514C68.7322 58.6181 67.8793 60.5231 66.4996 61.9027C65.12 63.2824 63.215 64.1353 61.1109 64.1353C59.0067 64.1353 57.1018 63.2824 55.7221 61.9027C54.3425 60.5231 53.4896 58.6181 53.4896 56.514C53.4896 54.4098 54.3425 52.5049 55.7221 51.1252ZM41.5434 88.4039H52.9008C54.2613 88.4024 55.1526 87.7192 55.5362 86.8708C55.6779 86.5565 55.7546 86.226 55.762 85.9043C55.7693 85.587 55.7118 85.2742 55.5878 84.9924C55.2957 84.3269 54.5845 83.8223 53.4143 83.8223H52.6515H43.4764V83.8208C43.1872 83.8208 42.9039 83.6821 42.7283 83.4253C42.4007 82.9443 41.6024 82.9133 40.4279 81.5056C39.3743 80.2455 38.0301 78.6371 36.5339 76.7868C35.4538 75.4514 36.8777 77.2088 36.1443 76.3013C34.6304 74.4259 33.9428 73.5745 33.2198 73.2646C32.6192 73.0078 31.7737 73.027 30.2258 73.0624C29.4954 73.0787 28.6352 73.0993 27.8413 73.0993C26.8453 73.0993 25.9423 73.5051 25.2857 74.1617C24.6275 74.8198 24.2218 74.8021 24.2218 75.7967V97.7545H34.3943V97.7575H34.4873C34.5183 97.7575 34.4489 97.7575 34.4504 97.7147L34.5492 85.6402L32.3875 82.8809C31.5966 81.9144 30.8161 80.9597 30.3572 80.2883L30.1358 80.0064C30.0178 79.8559 29.9558 79.6789 29.9455 79.5003L29.944 79.4856C29.9337 79.2052 30.0532 78.9234 30.2908 78.7375C30.6847 78.4305 31.2514 78.4999 31.5598 78.8939L33.6698 81.5883L33.7893 81.7329C34.6097 82.7348 35.439 83.7485 35.9245 84.4671L37.8899 86.9755C38.8977 88.2622 39.7654 88.308 41.176 88.3832L41.5434 88.4039ZM56.7255 88.4039C56.9085 88.156 57.0619 87.8904 57.1874 87.6159C57.4279 87.0862 57.5563 86.5137 57.5681 85.9412C57.5813 85.3657 57.4751 84.7932 57.2464 84.2708C56.6945 83.0151 55.4772 82.0575 53.5575 82.0117V75.9531C53.5589 75.8867 53.5619 75.8055 53.5648 75.714C53.5958 75.4484 53.5103 75.1695 53.3051 74.9659C52.951 74.6118 52.377 74.6118 52.0229 74.9659L44.98 82.0088H43.9338C43.4897 81.4259 42.7755 80.5716 41.8164 79.4221L41.4254 78.9544C41.9743 78.3966 42.5055 77.8507 43.0264 77.315C48.3679 71.8304 52.6426 67.4405 58.7411 67.4405H63.4836C69.5009 67.4405 73.969 71.9956 79.492 77.6264C79.9199 78.0631 80.3552 78.5058 80.7979 78.9558L80.4068 79.4236C79.4477 80.5716 78.7336 81.4259 78.2894 82.0103H77.2432L70.2004 74.9674L70.1989 74.9689C70.0262 74.7962 69.7857 74.6944 69.5246 74.7047C69.0258 74.7239 68.6363 75.1445 68.6569 75.6432C68.6613 75.7642 68.6658 75.869 68.6672 75.9531V82.0117C66.7475 82.0575 65.5302 83.0151 64.9783 84.2708C64.7496 84.7932 64.6434 85.3642 64.6567 85.9412C64.6699 86.5137 64.7983 87.0862 65.0374 87.6159C65.1613 87.8904 65.3162 88.156 65.4992 88.4039H56.7255ZM69.3224 88.4039H80.6798L81.0443 88.3847C82.4564 88.3095 83.3226 88.2637 84.3304 86.977L86.2958 84.4686C86.7828 83.75 87.612 82.7362 88.431 81.7343L88.5505 81.5897L90.6605 78.8953C90.9675 78.5014 91.5356 78.432 91.9295 78.7389C92.1671 78.9249 92.2866 79.2067 92.2763 79.4871L92.2748 79.5018C92.2645 79.6803 92.2025 79.8559 92.0845 80.0079L91.8646 80.2898C91.4057 80.9611 90.6236 81.9158 89.8327 82.8823L87.671 85.6416L87.7699 97.7162C87.7699 97.759 87.702 97.759 87.733 97.759H87.826V97.756H98V75.7967C98 74.8007 97.5942 73.8976 96.9376 73.241C96.2824 72.5858 95.3779 72.1786 94.3819 72.1786C93.5881 72.1786 92.7278 72.1594 91.9974 72.1417C90.4481 72.1063 89.6026 72.0871 89.0035 72.3438C88.2804 72.6537 87.5914 73.5066 86.0774 75.3806C85.3382 76.2969 86.7341 74.5734 85.6879 75.866C84.1917 77.7149 82.8474 79.3247 81.7939 80.5834C80.6179 81.9896 79.821 82.9443 79.4935 83.4253C79.3179 83.6821 79.0346 83.8193 78.7454 83.8208V83.8223H69.5703H68.8074C67.6358 83.8223 66.9261 84.3269 66.6339 84.9924C66.51 85.2742 66.4524 85.5856 66.4598 85.9043C66.4672 86.226 66.5424 86.5565 66.6856 86.8708C67.0707 87.7192 67.9605 88.4024 69.3224 88.4039ZM69.3062 90.2188H69.3268H80.5352V97.7545H41.6866V90.2188H52.8949H52.9156H53.8452H53.8585H68.3633H68.3766H69.3062ZM34.834 59.3072C33.5798 58.053 31.846 57.2769 29.9322 57.2769C28.0169 57.2769 26.2846 58.053 25.0304 59.3072C23.7761 60.5615 23 62.2952 23 64.2091C23 66.1243 23.7761 67.8567 25.0304 69.1109C26.2846 70.3651 28.0184 71.1413 29.9322 71.1413C31.8475 71.1413 33.5798 70.3651 34.834 69.1109C36.0883 67.8567 36.8644 66.1229 36.8644 64.2091C36.8644 62.2952 36.0883 60.5615 34.834 59.3072ZM90.4466 53.5879C88.5313 53.5879 86.799 54.3641 85.5448 55.6183C84.2905 56.8725 83.5144 58.6063 83.5144 60.5201C83.5144 62.4354 84.2905 64.1677 85.5448 65.422C86.799 66.6762 88.5328 67.4523 90.4466 67.4523C92.3619 67.4523 94.0942 66.6762 95.3484 65.422C96.6026 64.1677 97.3788 62.434 97.3788 60.5201C97.3788 58.6049 96.6026 56.8725 95.3484 55.6183C94.0942 54.3641 92.3604 53.5879 90.4466 53.5879ZM78.9519 47.758H95.1123V47.7609C95.3927 47.7609 95.6509 47.6429 95.8398 47.454C96.0272 47.2666 96.1423 47.0099 96.1423 46.7266V32.0299C96.1423 31.7466 96.0257 31.4884 95.8398 31.3025C95.6524 31.1151 95.3956 31 95.1123 31H73.0305C72.7472 31 72.489 31.1166 72.303 31.3025C72.1156 31.4899 72.0005 31.7466 72.0005 32.0299V46.7266C72.0005 47.0099 72.1171 47.2681 72.303 47.454C72.4904 47.6414 72.7472 47.7565 73.0305 47.7565H73.5971V47.758C73.6384 47.758 73.6797 47.7609 73.7211 47.7668C74.2168 47.8347 74.5621 48.2921 74.4928 48.7879L73.9483 52.6923L78.2319 48.1151C78.3971 47.8967 78.6583 47.758 78.9519 47.758Z" fill="#76B5FF"/>
<g clip-path="url(#clip0_3709_540)">
<circle cx="25" cy="31" r="25" fill="#313B78"/>
<path d="M23.5932 38.5207L17.3535 32.2795L19.4329 30.2001L23.5932 34.3589L31.9109 26.0398L33.9917 28.1207L23.5932 38.5207Z" fill="#CF37E3"/>
<path fill-rule="evenodd" clip-rule="evenodd" d="M10 31C10 22.7159 16.7159 16 25 16C33.2841 16 40 22.7159 40 31C40 39.2841 33.2841 46 25 46C16.7159 46 10 39.2841 10 31ZM25 43.2727C23.3883 43.2727 21.7924 42.9553 20.3034 42.3385C18.8144 41.7218 17.4615 40.8178 16.3219 39.6781C15.1822 38.5385 14.2782 37.1856 13.6615 35.6966C13.0447 34.2076 12.7273 32.6117 12.7273 31C12.7273 29.3883 13.0447 27.7924 13.6615 26.3034C14.2782 24.8144 15.1822 23.4615 16.3219 22.3219C17.4615 21.1822 18.8144 20.2782 20.3034 19.6615C21.7924 19.0447 23.3883 18.7273 25 18.7273C28.2549 18.7273 31.3765 20.0203 33.6781 22.3219C35.9797 24.6235 37.2727 27.7451 37.2727 31C37.2727 34.2549 35.9797 37.3765 33.6781 39.6781C31.3765 41.9797 28.2549 43.2727 25 43.2727Z" fill="#CF37E3"/>
</g>
<defs>
<clipPath id="clip0_3709_540">
<rect width="50" height="50" fill="white" transform="translate(0 6)"/>
</clipPath>
</defs>
</svg>
