<svg width="100" height="100" viewBox="0 0 100 100" fill="none" xmlns="http://www.w3.org/2000/svg">
<g clip-path="url(#clip0_3711_596)">
<mask id="mask0_3711_596" style="mask-type:luminance" maskUnits="userSpaceOnUse" x="31" y="31" width="60" height="60">
<path d="M61 91C77.569 91 91 77.569 91 61C91 44.431 77.569 31 61 31C44.431 31 31 44.431 31 61C31 77.569 44.431 91 61 91Z" fill="white"/>
</mask>
<g mask="url(#mask0_3711_596)">
<path d="M20.334 20.3333H100.334V100.333H20.334V20.3333Z" fill="#76B5FF"/>
</g>
<path d="M44.3522 65.186H48.6152V68H38.8292V67.349C40.8312 65.025 42.2592 63.331 43.1132 62.267C43.9812 61.189 44.5622 60.363 44.8562 59.789C45.1642 59.215 45.3182 58.676 45.3182 58.172C45.3182 57.682 45.1712 57.29 44.8772 56.996C44.5832 56.702 44.1982 56.555 43.7222 56.555C43.2322 56.555 42.8332 56.709 42.5252 57.017C42.2312 57.311 42.0842 57.71 42.0842 58.214V58.466H39.0812V58.172C39.0812 56.87 39.5012 55.806 40.3412 54.98C41.1812 54.154 42.2942 53.741 43.6802 53.741C44.5762 53.741 45.3812 53.93 46.0952 54.308C46.8092 54.672 47.3622 55.19 47.7542 55.862C48.1462 56.534 48.3422 57.29 48.3422 58.13C48.3422 59.026 48.0692 59.971 47.5232 60.965C46.9772 61.959 45.9202 63.366 44.3522 65.186ZM60.7291 62.708V65.312H59.5111V68H56.6971V65.312H49.9981V64.787L54.5971 54.035H57.5581L53.8411 62.708H56.7811L57.2641 59.369H59.5111V62.708H60.7291ZM61.7716 69.701L68.1766 52.019H71.3896L64.9846 69.701H61.7716ZM72.4391 54.035H82.4351V54.434L77.1221 68H74.0141L78.4871 56.723H72.4391V54.035Z" fill="#313B78"/>
<g clip-path="url(#clip1_3711_596)">
<circle cx="25" cy="31" r="25" fill="#313B78"/>
<path d="M23.5932 38.5207L17.3535 32.2795L19.4329 30.2001L23.5932 34.3589L31.9109 26.0398L33.9917 28.1207L23.5932 38.5207Z" fill="#CF37E3"/>
<path fill-rule="evenodd" clip-rule="evenodd" d="M10 31C10 22.7159 16.7159 16 25 16C33.2841 16 40 22.7159 40 31C40 39.2841 33.2841 46 25 46C16.7159 46 10 39.2841 10 31ZM25 43.2727C23.3883 43.2727 21.7924 42.9553 20.3034 42.3385C18.8144 41.7218 17.4615 40.8178 16.3219 39.6781C15.1822 38.5385 14.2782 37.1856 13.6615 35.6966C13.0447 34.2076 12.7273 32.6117 12.7273 31C12.7273 29.3883 13.0447 27.7924 13.6615 26.3034C14.2782 24.8144 15.1822 23.4615 16.3219 22.3219C17.4615 21.1822 18.8144 20.2782 20.3034 19.6615C21.7924 19.0447 23.3883 18.7273 25 18.7273C28.2549 18.7273 31.3765 20.0203 33.6781 22.3219C35.9797 24.6235 37.2727 27.7451 37.2727 31C37.2727 34.2549 35.9797 37.3765 33.6781 39.6781C31.3765 41.9797 28.2549 43.2727 25 43.2727Z" fill="#CF37E3"/>
</g>
<g clip-path="url(#clip2_3711_596)">
<path d="M89.4926 88.4133C82.9605 94.9444 75.0051 99.9847 68.5194 99.9847C65.6034 99.9847 63.0499 98.9674 60.9931 96.7071C59.7955 95.3735 59.0491 93.8142 59.0491 92.2781C59.0491 91.148 59.4792 90.0632 60.563 89.2946L67.4799 84.3671C68.5415 83.6439 69.4229 83.2823 70.2367 83.2823C71.2762 83.2823 72.1807 83.8705 73.2202 84.8869L74.8248 86.4693C74.9371 86.583 75.0706 86.6735 75.2179 86.7356C75.3652 86.7976 75.5232 86.83 75.683 86.8309C76.0446 86.8309 76.3619 86.6959 76.6097 86.5821C77.9886 85.8367 80.3839 83.7799 82.622 81.5649C84.837 79.35 86.8938 76.9547 87.617 75.5536C87.7728 75.2771 87.8579 74.9664 87.8649 74.6491C87.8649 74.3559 87.7752 74.0609 87.5264 73.813L85.945 72.1641C84.9267 71.1236 84.3394 70.2191 84.3394 69.1796C84.3394 68.3667 84.701 67.4854 85.4464 66.4227L90.3064 59.5744C91.0971 58.4896 92.2041 58.0151 93.4249 58.0151C94.9167 58.0151 96.4759 58.693 97.7864 59.9823C99.9792 62.0844 100.951 64.6822 100.951 67.5519C100.951 74.0387 96.0015 81.9044 89.4926 88.4133Z" fill="#76B5FF" stroke="#313B78" stroke-width="3"/>
</g>
</g>
<defs>
<clipPath id="clip0_3711_596">
<rect width="100" height="100" fill="white"/>
</clipPath>
<clipPath id="clip1_3711_596">
<rect width="50" height="50" fill="white" transform="translate(0 6)"/>
</clipPath>
<clipPath id="clip2_3711_596">
<rect width="54" height="54" fill="white" transform="matrix(-1 0 0 1 102 46)"/>
</clipPath>
</defs>
</svg>
