<svg width="101" height="100" viewBox="0 0 101 100" fill="none" xmlns="http://www.w3.org/2000/svg">
<g clip-path="url(#clip0_3709_419)">
<path d="M88.7156 69.7263C87.296 68.4482 85.6161 67.4931 83.7917 66.9269C82.6686 66.5258 81.5187 66.2041 80.3505 65.9643C79.2336 65.7177 78.0966 65.5733 76.9535 65.5327C74.5189 67.065 71.7278 67.9382 68.854 68.0666C68.3671 68.0666 67.8803 68.0666 67.3934 68.0666H66.0324C65.5456 68.0666 65.0587 68.0666 64.5718 68.0666C61.6942 67.9401 58.8991 67.0668 56.4612 65.5327C55.3186 65.5782 54.182 65.7226 53.0643 65.9643C51.9084 66.2055 50.7699 66.5234 49.6563 66.9158C47.7937 67.5009 46.0799 68.4824 44.6328 69.7927C39.3216 75.3252 37.4295 85.2062 36.7656 94.4676C36.6328 96.3487 36.5553 98.2187 36.5 100H96.9148C96.9148 98.2187 96.782 96.3487 96.6381 94.4676C95.9853 85.173 94.0711 75.2035 88.7156 69.7263Z" fill="#76B5FF"/>
<path fill-rule="evenodd" clip-rule="evenodd" d="M83.1846 32.592C81.879 25.4551 74.5429 19.9779 66.7089 20.0001C58.8749 20.0222 51.5388 25.4551 50.2331 32.592C49.9012 34.4067 49.3037 39.4523 52.0478 49.8534C53.6412 55.8838 58.8749 60.7192 66.7089 60.7192C74.5429 60.7192 79.7766 55.8948 81.37 49.8644C84.1141 39.4523 83.5166 34.4067 83.1846 32.592Z" fill="#76B5FF"/>
<g clip-path="url(#clip1_3709_419)">
<circle cx="25.5" cy="31" r="25" fill="#313B78"/>
<path d="M24.0932 38.5207L17.8535 32.2795L19.9329 30.2001L24.0932 34.3589L32.4109 26.0398L34.4917 28.1207L24.0932 38.5207Z" fill="#CF37E3"/>
<path fill-rule="evenodd" clip-rule="evenodd" d="M10.5 31C10.5 22.7159 17.2159 16 25.5 16C33.7841 16 40.5 22.7159 40.5 31C40.5 39.2841 33.7841 46 25.5 46C17.2159 46 10.5 39.2841 10.5 31ZM25.5 43.2727C23.8883 43.2727 22.2924 42.9553 20.8034 42.3385C19.3144 41.7218 17.9615 40.8178 16.8219 39.6781C15.6822 38.5385 14.7782 37.1856 14.1615 35.6966C13.5447 34.2076 13.2273 32.6117 13.2273 31C13.2273 29.3883 13.5447 27.7924 14.1615 26.3034C14.7782 24.8144 15.6822 23.4615 16.8219 22.3219C17.9615 21.1822 19.3144 20.2782 20.8034 19.6615C22.2924 19.0447 23.8883 18.7273 25.5 18.7273C28.7549 18.7273 31.8765 20.0203 34.1781 22.3219C36.4797 24.6235 37.7727 27.7451 37.7727 31C37.7727 34.2549 36.4797 37.3765 34.1781 39.6781C31.8765 41.9797 28.7549 43.2727 25.5 43.2727Z" fill="#CF37E3"/>
</g>
</g>
<defs>
<clipPath id="clip0_3709_419">
<rect width="100" height="100" fill="white" transform="translate(0.5)"/>
</clipPath>
<clipPath id="clip1_3709_419">
<rect width="50" height="50" fill="white" transform="translate(0.5 6)"/>
</clipPath>
</defs>
</svg>
