<svg width="100" height="100" viewBox="0 0 100 100" fill="none" xmlns="http://www.w3.org/2000/svg">
<path d="M37.5 25C34.1848 25 31.0054 26.317 28.6612 28.6612C26.317 31.0054 25 34.1848 25 37.5V40H95V37.5C95 34.1848 93.683 31.0054 91.3388 28.6612C88.9946 26.317 85.8152 25 82.5 25H37.5ZM95 45H25V82.5C25 85.8152 26.317 88.9946 28.6612 91.3388C31.0054 93.683 34.1848 95 37.5 95H82.5C85.8152 95 88.9946 93.683 91.3388 91.3388C93.683 88.9946 95 85.8152 95 82.5V45ZM50 60C50 61.3261 49.4732 62.5979 48.5355 63.5355C47.5979 64.4732 46.3261 65 45 65C43.6739 65 42.4021 64.4732 41.4645 63.5355C40.5268 62.5979 40 61.3261 40 60C40 58.6739 40.5268 57.4021 41.4645 56.4645C42.4021 55.5268 43.6739 55 45 55C46.3261 55 47.5979 55.5268 48.5355 56.4645C49.4732 57.4021 50 58.6739 50 60ZM45 80C43.6739 80 42.4021 79.4732 41.4645 78.5355C40.5268 77.5979 40 76.3261 40 75C40 73.6739 40.5268 72.4021 41.4645 71.4645C42.4021 70.5268 43.6739 70 45 70C46.3261 70 47.5979 70.5268 48.5355 71.4645C49.4732 72.4021 50 73.6739 50 75C50 76.3261 49.4732 77.5979 48.5355 78.5355C47.5979 79.4732 46.3261 80 45 80ZM65 60C65 61.3261 64.4732 62.5979 63.5355 63.5355C62.5979 64.4732 61.3261 65 60 65C58.6739 65 57.4021 64.4732 56.4645 63.5355C55.5268 62.5979 55 61.3261 55 60C55 58.6739 55.5268 57.4021 56.4645 56.4645C57.4021 55.5268 58.6739 55 60 55C61.3261 55 62.5979 55.5268 63.5355 56.4645C64.4732 57.4021 65 58.6739 65 60ZM60 80C58.6739 80 57.4021 79.4732 56.4645 78.5355C55.5268 77.5979 55 76.3261 55 75C55 73.6739 55.5268 72.4021 56.4645 71.4645C57.4021 70.5268 58.6739 70 60 70C61.3261 70 62.5979 70.5268 63.5355 71.4645C64.4732 72.4021 65 73.6739 65 75C65 76.3261 64.4732 77.5979 63.5355 78.5355C62.5979 79.4732 61.3261 80 60 80ZM80 60C80 61.3261 79.4732 62.5979 78.5355 63.5355C77.5979 64.4732 76.3261 65 75 65C73.6739 65 72.4021 64.4732 71.4645 63.5355C70.5268 62.5979 70 61.3261 70 60C70 58.6739 70.5268 57.4021 71.4645 56.4645C72.4021 55.5268 73.6739 55 75 55C76.3261 55 77.5979 55.5268 78.5355 56.4645C79.4732 57.4021 80 58.6739 80 60Z" fill="#76B5FF"/>
<g clip-path="url(#clip0_3709_513)">
<circle cx="25" cy="31" r="25" fill="#313B78"/>
<path d="M23.5932 38.5207L17.3535 32.2795L19.4329 30.2001L23.5932 34.3589L31.9109 26.0398L33.9917 28.1207L23.5932 38.5207Z" fill="#CF37E3"/>
<path fill-rule="evenodd" clip-rule="evenodd" d="M10 31C10 22.7159 16.7159 16 25 16C33.2841 16 40 22.7159 40 31C40 39.2841 33.2841 46 25 46C16.7159 46 10 39.2841 10 31ZM25 43.2727C23.3883 43.2727 21.7924 42.9553 20.3034 42.3385C18.8144 41.7218 17.4615 40.8178 16.3219 39.6781C15.1822 38.5385 14.2782 37.1856 13.6615 35.6966C13.0447 34.2076 12.7273 32.6117 12.7273 31C12.7273 29.3883 13.0447 27.7924 13.6615 26.3034C14.2782 24.8144 15.1822 23.4615 16.3219 22.3219C17.4615 21.1822 18.8144 20.2782 20.3034 19.6615C21.7924 19.0447 23.3883 18.7273 25 18.7273C28.2549 18.7273 31.3765 20.0203 33.6781 22.3219C35.9797 24.6235 37.2727 27.7451 37.2727 31C37.2727 34.2549 35.9797 37.3765 33.6781 39.6781C31.3765 41.9797 28.2549 43.2727 25 43.2727Z" fill="#CF37E3"/>
</g>
<defs>
<clipPath id="clip0_3709_513">
<rect width="50" height="50" fill="white" transform="translate(0 6)"/>
</clipPath>
</defs>
</svg>
