<svg width="101" height="100" viewBox="0 0 101 100" fill="none" xmlns="http://www.w3.org/2000/svg">
<g clip-path="url(#clip0_3709_459)">
<path d="M42.8208 63.6881C42.9544 63.5468 43.096 63.4132 43.2448 63.2881C41.8509 63.0965 40.5157 62.6022 39.3328 61.8401C37.2288 61.8881 33.5488 62.8801 32.0048 64.4801C28.0048 68.5761 27.1408 76.6561 26.9648 83.2001H36.4528C36.4528 83.1441 36.4528 83.0881 36.4528 83.0321C37.1168 73.7601 39.1968 67.4321 42.8208 63.6881Z" fill="#76B5FF"/>
<path d="M46.1968 40C46.5072 38.3831 47.1412 36.8456 48.0608 35.48C47.3102 35.306 46.5432 35.2121 45.7728 35.2C40.8608 35.2 36.2688 38.616 35.4448 43.088C35.2368 44.224 34.8688 47.3839 36.5888 53.8959C37.1103 55.9099 38.3064 57.6842 39.9776 58.9231C41.6489 60.1619 43.6943 60.7905 45.7728 60.704C47.5401 60.7268 49.281 60.2736 50.8128 59.392C49.2709 57.7773 48.1691 55.7941 47.6128 53.632C46.1008 48 45.5968 43.248 46.1968 40Z" fill="#76B5FF"/>
<path d="M84.5397 83.0321C84.5397 83.0881 84.5397 83.1441 84.5397 83.2001H94.0357C93.8597 76.6321 92.9477 68.5201 88.9557 64.4401C87.4197 62.8401 83.7557 61.8881 81.6677 61.8401C80.4879 62.6026 79.1553 63.0969 77.7637 63.2881C77.8917 63.4001 78.0117 63.5201 78.1317 63.6401C81.7797 67.3761 83.8757 73.7201 84.5397 83.0321Z" fill="#76B5FF"/>
<path d="M73.6349 53.6C73.0631 55.7704 71.9417 57.7569 70.3789 59.368C71.9059 60.2463 73.6415 60.6968 75.4029 60.672C77.4815 60.7585 79.5269 60.13 81.1981 58.8911C82.8693 57.6522 84.0654 55.8779 84.5869 53.864C86.3069 47.352 85.9389 44.192 85.7229 43.056C84.9229 38.584 80.3149 35.16 75.4029 35.168C74.6416 35.1697 73.8826 35.2528 73.1389 35.416C74.0697 36.7991 74.7043 38.3598 75.0029 40C75.6029 43.248 75.1309 48 73.6349 53.6Z" fill="#76B5FF"/>
<path d="M76.4122 65.312C75.3858 64.3879 74.1712 63.6974 72.8522 63.288C72.0402 62.998 71.2088 62.7655 70.3642 62.592C69.5566 62.4138 68.7346 62.3094 67.9082 62.28C66.1479 63.3879 64.1299 64.0192 62.0522 64.112C61.7002 64.112 61.3482 64.112 60.9962 64.112H60.0122C59.6602 64.112 59.3082 64.112 58.9562 64.112C56.8756 64.0205 54.8547 63.3892 53.0922 62.28C52.266 62.3129 51.4443 62.4173 50.6362 62.592C49.8005 62.7665 48.9773 62.9963 48.1722 63.28C46.8255 63.703 45.5865 64.4126 44.5402 65.36C40.7002 69.36 39.3322 76.504 38.8522 83.2C38.7562 84.56 38.7002 85.912 38.6602 87.2H82.3402C82.3402 85.912 82.2442 84.56 82.1402 83.2C81.6682 76.48 80.2842 69.272 76.4122 65.312Z" fill="#76B5FF"/>
<path fill-rule="evenodd" clip-rule="evenodd" d="M72.4127 40.4639C71.4688 35.3039 66.1647 31.3439 60.5007 31.3599C54.8367 31.3759 49.5327 35.3039 48.5887 40.4639C48.3487 41.7759 47.9167 45.4239 49.9007 52.9439C51.0527 57.3039 54.8367 60.7999 60.5007 60.7999C66.1647 60.7999 69.9487 57.3119 71.1007 52.9519C73.0847 45.4239 72.6528 41.7759 72.4127 40.4639Z" fill="#76B5FF"/>
<g clip-path="url(#clip1_3709_459)">
<circle cx="25.5" cy="31" r="25" fill="#313B78"/>
<path d="M24.0932 38.5207L17.8535 32.2795L19.9329 30.2001L24.0932 34.3589L32.4109 26.0398L34.4917 28.1207L24.0932 38.5207Z" fill="#CF37E3"/>
<path fill-rule="evenodd" clip-rule="evenodd" d="M10.5 31C10.5 22.7159 17.2159 16 25.5 16C33.7841 16 40.5 22.7159 40.5 31C40.5 39.2841 33.7841 46 25.5 46C17.2159 46 10.5 39.2841 10.5 31ZM25.5 43.2727C23.8883 43.2727 22.2924 42.9553 20.8034 42.3385C19.3144 41.7218 17.9615 40.8178 16.8219 39.6781C15.6822 38.5385 14.7782 37.1856 14.1615 35.6966C13.5447 34.2076 13.2273 32.6117 13.2273 31C13.2273 29.3883 13.5447 27.7924 14.1615 26.3034C14.7782 24.8144 15.6822 23.4615 16.8219 22.3219C17.9615 21.1822 19.3144 20.2782 20.8034 19.6615C22.2924 19.0447 23.8883 18.7273 25.5 18.7273C28.7549 18.7273 31.8765 20.0203 34.1781 22.3219C36.4797 24.6235 37.7727 27.7451 37.7727 31C37.7727 34.2549 36.4797 37.3765 34.1781 39.6781C31.8765 41.9797 28.7549 43.2727 25.5 43.2727Z" fill="#CF37E3"/>
</g>
</g>
<defs>
<clipPath id="clip0_3709_459">
<rect width="100" height="100" fill="white" transform="translate(0.5)"/>
</clipPath>
<clipPath id="clip1_3709_459">
<rect width="50" height="50" fill="white" transform="translate(0.5 6)"/>
</clipPath>
</defs>
</svg>
