<svg width="101" height="100" viewBox="0 0 101 100" fill="none" xmlns="http://www.w3.org/2000/svg">
<g clip-path="url(#clip0_3709_439)">
<g clip-path="url(#clip1_3709_439)">
<path d="M60.5 20C38.4081 20 20.5 37.9081 20.5 60C20.5 82.0919 38.4081 100 60.5 100C82.5919 100 100.5 82.0919 100.5 60C100.5 37.9081 82.5919 20 60.5 20ZM58.671 58.7468C58.2048 59.5242 57.3645 60 56.4581 60H56.4081C55.7242 60 55.0677 60.2726 54.5839 60.7565L53.671 61.6694C53.1677 62.1726 53.1677 62.9903 53.671 63.4935L54.5839 64.4065C55.0677 64.8903 55.3403 65.5468 55.3403 66.2306V67.7419C55.3403 69.1677 54.1855 70.3226 52.7597 70.3226H51.7742C50.7968 70.3226 49.9032 69.771 49.4661 68.8952L45.8177 61.6C45.4242 60.8129 44.3742 60.6419 43.7516 61.2645L40.6113 64.4032C40.1274 64.8871 39.471 65.1597 38.7871 65.1597H28.6952C28.4226 63.4758 28.2419 61.7613 28.2419 60C28.2419 42.2129 42.7129 27.7419 60.5 27.7419C63.9694 27.7419 67.3064 28.3081 70.4403 29.3258L62.35 35.5403C61.5258 36.0903 61.6032 37.3242 62.4887 37.7677L64.2355 38.6403C65.1097 39.0774 65.6613 39.971 65.6613 40.9484V53.5484C65.6613 54.2613 65.0839 54.8387 64.371 54.8387H63.8774C63.3887 54.8387 62.9419 54.5629 62.7242 54.1258C62.4726 53.6226 61.7629 53.5952 61.4726 54.0774L58.671 58.7468ZM86.3064 76.521C86.3064 77.2048 86.0339 77.8613 85.55 78.3452L84.0064 79.8887C83.5226 80.3726 82.8661 80.6452 82.1823 80.6452H79.7371C79.0532 80.6452 78.3968 80.3726 77.9129 79.8887L75.8145 77.7903C75.2873 77.2632 74.6326 76.8815 73.9141 76.6826C73.1956 76.4836 72.4378 76.474 71.7145 76.6548L68.2839 77.5129C68.079 77.5645 67.8694 77.5903 67.6581 77.5903H65.9903C65.3064 77.5903 64.65 77.3177 64.1661 76.8339L62.2452 74.9129C62.1254 74.793 62.0304 74.6506 61.9656 74.494C61.9009 74.3374 61.8676 74.1695 61.8677 74V72.3548C61.8677 71.8274 62.1887 71.3532 62.679 71.1565L69.0242 68.6177C69.3435 68.4903 69.6468 68.3242 69.9258 68.1258L73.75 65.4016C73.9686 65.2462 74.2302 65.1628 74.4984 65.1629H76.4484C76.9694 65.1629 77.4403 65.4758 77.6403 65.9581L78.5032 68.0306C78.5522 68.1481 78.6349 68.2485 78.7408 68.3191C78.8467 68.3897 78.9711 68.4274 79.0984 68.4274H79.7113C79.9984 68.4274 80.2516 68.2371 80.3306 67.9629L81.0081 65.629C81.0887 65.3532 81.3403 65.1645 81.6274 65.1645H82.6048C82.9613 65.1645 83.25 65.4532 83.25 65.8097V67.8952C83.25 68.2371 83.3855 68.5661 83.6274 68.8081L85.5484 70.729C86.0323 71.2129 86.3048 71.8694 86.3048 72.5532V76.521H86.3064Z" fill="#76B5FF"/>
</g>
<g clip-path="url(#clip2_3709_439)">
<circle cx="25.5" cy="31" r="25" fill="#313B78"/>
<path d="M24.0932 38.5207L17.8535 32.2795L19.9329 30.2001L24.0932 34.3589L32.4109 26.0398L34.4917 28.1207L24.0932 38.5207Z" fill="#CF37E3"/>
<path fill-rule="evenodd" clip-rule="evenodd" d="M10.5 31C10.5 22.7159 17.2159 16 25.5 16C33.7841 16 40.5 22.7159 40.5 31C40.5 39.2841 33.7841 46 25.5 46C17.2159 46 10.5 39.2841 10.5 31ZM25.5 43.2727C23.8883 43.2727 22.2924 42.9553 20.8034 42.3385C19.3144 41.7218 17.9615 40.8178 16.8219 39.6781C15.6822 38.5385 14.7782 37.1856 14.1615 35.6966C13.5447 34.2076 13.2273 32.6117 13.2273 31C13.2273 29.3883 13.5447 27.7924 14.1615 26.3034C14.7782 24.8144 15.6822 23.4615 16.8219 22.3219C17.9615 21.1822 19.3144 20.2782 20.8034 19.6615C22.2924 19.0447 23.8883 18.7273 25.5 18.7273C28.7549 18.7273 31.8765 20.0203 34.1781 22.3219C36.4797 24.6235 37.7727 27.7451 37.7727 31C37.7727 34.2549 36.4797 37.3765 34.1781 39.6781C31.8765 41.9797 28.7549 43.2727 25.5 43.2727Z" fill="#CF37E3"/>
</g>
</g>
<defs>
<clipPath id="clip0_3709_439">
<rect width="100" height="100" fill="white" transform="translate(0.5)"/>
</clipPath>
<clipPath id="clip1_3709_439">
<rect width="80" height="80" fill="white" transform="translate(20.5 20)"/>
</clipPath>
<clipPath id="clip2_3709_439">
<rect width="50" height="50" fill="white" transform="translate(0.5 6)"/>
</clipPath>
</defs>
</svg>
