<svg width="294" height="86" viewBox="0 0 294 86" fill="none" xmlns="http://www.w3.org/2000/svg">
<g clip-path="url(#clip0_3701_427)">
<path d="M133.311 42.6102L131.323 37.9033H117.463L115.475 42.6102H109L121.155 15.287H127.744L139.899 42.6102H133.311ZM129.051 32.5649L124.393 21.4864L119.735 32.5649H129.051Z" fill="#CF37E3"/>
<path d="M142.059 23.3806H147.228L147.625 25.5045C148.818 23.7825 150.522 22.9214 152.737 22.9214C154.555 22.9214 156.088 23.4954 157.395 24.7009L155.066 29.1782C154.157 28.5468 153.135 28.2024 151.999 28.2024C150.749 28.2024 149.67 28.6042 148.818 29.4078C147.966 30.2114 147.568 31.3021 147.568 32.6797V42.725H142.002V23.3806H142.059Z" fill="#CF37E3"/>
<path d="M177.331 42.6102H171.822V32.2779C171.822 29.4652 170.742 28.0876 168.527 28.0876C167.448 28.0876 166.653 28.4894 166.028 29.3504C165.403 30.2114 165.119 31.1873 165.119 32.3353V42.6676H159.553V23.3232H164.438L164.835 25.5045C165.801 23.7825 167.505 22.864 169.834 22.864C172.503 22.864 174.321 24.0695 175.4 26.4803C176.252 25.1601 177.161 24.2417 178.126 23.6677C179.092 23.0936 180.285 22.8066 181.705 22.8066C183.977 22.8066 185.795 23.4955 187.215 24.9305C188.635 26.3081 189.316 28.719 189.316 32.0483V42.6102H183.693V32.1631C183.693 29.4652 182.727 28.145 180.796 28.145C179.717 28.145 178.865 28.5468 178.24 29.3504C177.615 30.154 177.274 31.1299 177.274 32.2779V42.6102H177.331Z" fill="#CF37E3"/>
<path d="M194.201 15.287H200.222V37.0422H213.741V42.6102H194.201V15.287Z" fill="#CF37E3"/>
<path d="M217.317 20.568C216.636 19.9939 216.352 19.1903 216.352 18.2145C216.352 17.2387 216.692 16.435 217.317 15.861C217.999 15.287 218.68 15 219.476 15C220.271 15 221.009 15.287 221.634 15.861C222.316 16.435 222.6 17.2387 222.6 18.2145C222.6 19.1903 222.259 19.9939 221.634 20.568C220.952 21.142 220.271 21.429 219.476 21.429C218.68 21.429 217.999 21.142 217.317 20.568ZM222.316 23.2658H216.749V42.6102H222.316V23.2658Z" fill="#CF37E3"/>
<path d="M246.343 42.6102H240.72V32.3927C240.72 29.4078 239.414 27.9154 236.801 27.9154C235.551 27.9154 234.529 28.3172 233.677 29.293C232.882 30.2115 232.484 31.3595 232.484 32.6223V42.5528H227.031V23.3233H232.03L232.2 25.7915C233.734 23.7825 235.779 22.8066 238.391 22.864C243.674 22.864 246.343 26.0211 246.343 32.3927V42.6102Z" fill="#CF37E3"/>
<path d="M249.977 45.2507H255.146C255.317 47.8338 256.907 49.154 259.917 49.154C261.224 49.154 262.36 48.867 263.269 48.2356C264.177 47.6042 264.632 46.7431 264.632 45.5951C264.632 43.3564 263.098 42.2658 259.974 42.2658C256.85 42.2658 254.351 41.4048 252.477 39.6253C250.602 37.8459 249.693 35.4924 249.693 32.5649C249.693 29.4652 250.716 26.997 252.704 25.3323C254.692 23.6677 257.134 22.7492 260.031 22.7492C262.019 22.7492 263.496 23.0936 264.518 23.7825L266.62 21.0272L270.653 24.1269L268.21 27.0544C269.574 28.719 270.255 30.6133 270.198 32.6223C270.142 35.722 268.778 38.0181 266.109 39.3957C268.949 40.6586 270.369 42.725 270.369 45.5951C270.369 48.293 269.346 50.4168 267.302 51.8519C265.257 53.3443 262.814 54.0906 259.974 54.0906C256.68 54.0906 254.237 53.3443 252.477 51.7945C250.716 50.2446 249.921 48.0634 249.977 45.2507ZM260.031 27.7432C258.554 27.7432 257.361 28.145 256.453 29.006C255.544 29.867 255.089 31.0725 255.089 32.5649C255.089 33.9426 255.544 35.0332 256.509 35.8942C257.475 36.7552 258.611 37.1571 260.031 37.1571C261.394 37.1571 262.53 36.7552 263.439 35.9516C264.348 35.148 264.802 34 264.802 32.5649C264.802 31.1873 264.348 30.0392 263.439 29.1208C262.53 28.2024 261.394 27.7432 260.031 27.7432Z" fill="#CF37E3"/>
<path d="M283.492 43.012C280.311 43.012 277.812 42.0936 275.881 40.1993C274.007 38.3625 273.041 35.9516 273.041 32.9667C273.041 30.0392 274.007 27.6284 275.938 25.7341C277.869 23.8399 280.368 22.864 283.492 22.864C286.616 22.864 289.172 23.8399 291.104 25.7341C293.035 27.6284 294 30.0392 294 32.9667C294 35.9516 293.035 38.3625 291.16 40.1993C289.229 42.0936 286.73 43.012 283.492 43.012ZM283.492 38.0181C285.083 38.0181 286.276 37.5589 287.128 36.583C287.923 35.6072 288.32 34.4018 288.32 33.0241C288.32 31.6465 287.923 30.4985 287.071 29.4652C286.219 28.432 285.026 27.9154 283.492 27.9154C281.959 27.9154 280.766 28.432 279.914 29.4652C279.062 30.4985 278.664 31.6465 278.664 33.0241C278.664 34.4018 279.062 35.5498 279.857 36.583C280.766 37.5589 281.959 38.0181 283.492 38.0181Z" fill="#CF37E3"/>
<path d="M118.47 68.9429H109.95V61.9429H111.33V67.6429H113.52V61.9429H114.9V67.6429H117.09V61.9429H118.47V68.9429ZM126.158 68.9429L124.718 66.6929C124.558 66.4462 124.418 66.2795 124.298 66.1929C124.178 66.1062 124.001 66.0629 123.768 66.0629H123.128V68.9429H121.748V61.9429H123.128V64.7329H123.728C123.955 64.7329 124.128 64.6895 124.248 64.6029C124.375 64.5162 124.518 64.3495 124.678 64.1029L126.058 61.9429H127.618L125.968 64.5229C125.641 64.9695 125.371 65.2495 125.158 65.3629C125.411 65.4762 125.695 65.7795 126.008 66.2729L127.718 68.9429H126.158ZM130.666 62.9229C131.36 62.2229 132.2 61.8729 133.186 61.8729C134.173 61.8729 135.013 62.2229 135.706 62.9229C136.406 63.6162 136.756 64.4562 136.756 65.4429C136.756 66.4295 136.406 67.2729 135.706 67.9729C135.013 68.6662 134.173 69.0129 133.186 69.0129C132.2 69.0129 131.36 68.6662 130.666 67.9729C129.973 67.2729 129.626 66.4295 129.626 65.4429C129.626 64.4562 129.973 63.6162 130.666 62.9229ZM134.746 63.8129C134.326 63.3862 133.806 63.1729 133.186 63.1729C132.566 63.1729 132.046 63.3862 131.626 63.8129C131.213 64.2395 131.006 64.7829 131.006 65.4429C131.006 66.1095 131.213 66.6562 131.626 67.0829C132.046 67.5029 132.566 67.7129 133.186 67.7129C133.813 67.7129 134.333 67.5029 134.746 67.0829C135.166 66.6562 135.376 66.1095 135.376 65.4429C135.376 64.7829 135.166 64.2395 134.746 63.8129ZM141.72 64.4729L139.98 68.9429H138.45L141.33 61.9429H142.14L144.98 68.9429H143.45L141.72 64.4729ZM149.072 67.6629L148.572 68.9429H147.042L149.922 61.9429H150.732L153.572 68.9429H152.042L151.542 67.6629H149.072ZM150.312 64.4429L149.552 66.3529H151.062L150.312 64.4429ZM162.234 67.6629L161.734 68.9429H160.204L163.084 61.9429H163.894L166.734 68.9429H165.204L164.704 67.6629H162.234ZM163.474 64.4429L162.714 66.3529H164.224L163.474 64.4429ZM169.192 61.9429H171.492C172.452 61.9429 173.212 62.1962 173.772 62.7029C174.332 63.2029 174.612 63.8462 174.612 64.6329C174.612 65.4262 174.332 66.0762 173.772 66.5829C173.212 67.0829 172.452 67.3329 171.492 67.3329H170.572V68.9429H169.192V61.9429ZM170.572 66.0329H171.602C172.089 66.0329 172.492 65.9162 172.812 65.6829C173.139 65.4495 173.302 65.0995 173.302 64.6329C173.302 64.1862 173.139 63.8429 172.812 63.6029C172.486 63.3629 172.082 63.2429 171.602 63.2429H170.572V66.0329ZM184.313 68.9429H182.933V64.4729L180.823 67.0929L178.723 64.4729V68.9429H177.343V61.9429H178.163L180.823 65.2829L183.493 61.9429H184.313V68.9429ZM192.548 68.9429H191.168V67.2329H190.398C190.064 67.2395 189.814 67.3029 189.648 67.4229C189.488 67.5429 189.271 67.8162 188.998 68.2429L188.548 68.9429H186.998L187.598 68.0129C188.018 67.3662 188.368 66.9562 188.648 66.7829C188.168 66.5962 187.794 66.3129 187.528 65.9329C187.268 65.5529 187.138 65.1029 187.138 64.5829C187.138 63.8162 187.404 63.1862 187.938 62.6929C188.478 62.1929 189.221 61.9429 190.168 61.9429H192.548V68.9429ZM191.168 63.2429H190.038C189.564 63.2429 189.178 63.3595 188.878 63.5929C188.584 63.8262 188.438 64.1562 188.438 64.5829C188.438 65.0295 188.584 65.3662 188.878 65.5929C189.171 65.8195 189.558 65.9329 190.038 65.9329H191.168V63.2429ZM201.219 68.9429H199.839V66.0729H197.129V68.9429H195.749V61.9429H197.129V64.7729H199.839V61.9429H201.219V68.9429ZM207.375 61.8729C208.415 61.8729 209.295 62.2595 210.015 63.0329L209.115 63.8629C208.642 63.4029 208.062 63.1729 207.375 63.1729C206.755 63.1729 206.235 63.3862 205.815 63.8129C205.402 64.2395 205.195 64.7829 205.195 65.4429C205.195 66.1095 205.402 66.6562 205.815 67.0829C206.235 67.5029 206.755 67.7129 207.375 67.7129C208.075 67.7129 208.655 67.4829 209.115 67.0229L210.015 67.8529C209.295 68.6262 208.415 69.0129 207.375 69.0129C206.388 69.0129 205.548 68.6662 204.855 67.9729C204.162 67.2729 203.815 66.4295 203.815 65.4429C203.815 64.4562 204.162 63.6162 204.855 62.9229C205.548 62.2229 206.388 61.8729 207.375 61.8729ZM217.21 68.9429L215.77 66.6929C215.61 66.4462 215.47 66.2795 215.35 66.1929C215.23 66.1062 215.053 66.0629 214.82 66.0629H214.18V68.9429H212.8V61.9429H214.18V64.7329H214.78C215.006 64.7329 215.18 64.6895 215.3 64.6029C215.426 64.5162 215.57 64.3495 215.73 64.1029L217.11 61.9429H218.67L217.02 64.5229C216.693 64.9695 216.423 65.2495 216.21 65.3629C216.463 65.4762 216.746 65.7795 217.06 66.2729L218.77 68.9429H217.21ZM221.718 62.9229C222.411 62.2229 223.251 61.8729 224.238 61.8729C225.225 61.8729 226.065 62.2229 226.758 62.9229C227.458 63.6162 227.808 64.4562 227.808 65.4429C227.808 66.4295 227.458 67.2729 226.758 67.9729C226.065 68.6662 225.225 69.0129 224.238 69.0129C223.251 69.0129 222.411 68.6662 221.718 67.9729C221.025 67.2729 220.678 66.4295 220.678 65.4429C220.678 64.4562 221.025 63.6162 221.718 62.9229ZM225.798 63.8129C225.378 63.3862 224.858 63.1729 224.238 63.1729C223.618 63.1729 223.098 63.3862 222.678 63.8129C222.265 64.2395 222.058 64.7829 222.058 65.4429C222.058 66.1095 222.265 66.6562 222.678 67.0829C223.098 67.5029 223.618 67.7129 224.238 67.7129C224.865 67.7129 225.385 67.5029 225.798 67.0829C226.218 66.6562 226.428 66.1095 226.428 65.4429C226.428 64.7829 226.218 64.2395 225.798 63.8129ZM232.019 63.2429V68.9429H230.639V61.9429H235.169V63.2429H232.019ZM238.337 62.9229C239.03 62.2229 239.87 61.8729 240.857 61.8729C241.843 61.8729 242.683 62.2229 243.377 62.9229C244.077 63.6162 244.427 64.4562 244.427 65.4429C244.427 66.4295 244.077 67.2729 243.377 67.9729C242.683 68.6662 241.843 69.0129 240.857 69.0129C239.87 69.0129 239.03 68.6662 238.337 67.9729C237.643 67.2729 237.297 66.4295 237.297 65.4429C237.297 64.4562 237.643 63.6162 238.337 62.9229ZM242.417 63.8129C241.997 63.3862 241.477 63.1729 240.857 63.1729C240.237 63.1729 239.717 63.3862 239.297 63.8129C238.883 64.2395 238.677 64.7829 238.677 65.4429C238.677 66.1095 238.883 66.6562 239.297 67.0829C239.717 67.5029 240.237 67.7129 240.857 67.7129C241.483 67.7129 242.003 67.5029 242.417 67.0829C242.837 66.6562 243.047 66.1095 243.047 65.4429C243.047 64.7829 242.837 64.2395 242.417 63.8129ZM256.757 68.9429H255.377V67.2329H254.607C254.274 67.2395 254.024 67.3029 253.857 67.4229C253.697 67.5429 253.48 67.8162 253.207 68.2429L252.757 68.9429H251.207L251.807 68.0129C252.227 67.3662 252.577 66.9562 252.857 66.7829C252.377 66.5962 252.004 66.3129 251.737 65.9329C251.477 65.5529 251.347 65.1029 251.347 64.5829C251.347 63.8162 251.614 63.1862 252.147 62.6929C252.687 62.1929 253.43 61.9429 254.377 61.9429H256.757V68.9429ZM255.377 63.2429H254.247C253.774 63.2429 253.387 63.3595 253.087 63.5929C252.794 63.8262 252.647 64.1562 252.647 64.5829C252.647 65.0295 252.794 65.3662 253.087 65.5929C253.38 65.8195 253.767 65.9329 254.247 65.9329H255.377V63.2429ZM261.558 64.6929H262.438C262.772 64.6929 263.008 64.6195 263.148 64.4729C263.288 64.3195 263.358 64.1429 263.358 63.9429C263.358 63.4295 263.032 63.1729 262.378 63.1729H262.328C262.048 63.1729 261.732 63.2362 261.378 63.3629C261.032 63.4895 260.732 63.6562 260.478 63.8629L259.578 63.0329C259.952 62.6795 260.375 62.3995 260.848 62.1929C261.322 61.9795 261.798 61.8729 262.278 61.8729H262.348C262.708 61.8795 263.028 61.9262 263.308 62.0129C263.595 62.0995 263.818 62.2095 263.978 62.3429C264.145 62.4695 264.282 62.6195 264.388 62.7929C264.495 62.9662 264.565 63.1295 264.598 63.2829C264.638 63.4362 264.658 63.5929 264.658 63.7529C264.658 64.1329 264.572 64.4662 264.398 64.7529C264.225 65.0395 263.995 65.2395 263.708 65.3529C264.068 65.4395 264.352 65.6295 264.558 65.9229C264.772 66.2162 264.878 66.5695 264.878 66.9829C264.878 67.5895 264.668 68.0795 264.248 68.4529C263.835 68.8195 263.182 69.0062 262.288 69.0129H262.218C261.692 69.0129 261.185 68.8962 260.698 68.6629C260.212 68.4295 259.792 68.1195 259.438 67.7329L260.338 66.9029C260.585 67.1429 260.885 67.3395 261.238 67.4929C261.598 67.6395 261.942 67.7129 262.268 67.7129H262.318C263.152 67.6995 263.568 67.4062 263.568 66.8329C263.568 66.5929 263.485 66.3929 263.318 66.2329C263.158 66.0662 262.908 65.9829 262.568 65.9829H261.558V64.6929ZM268.955 64.5229H270.525C271.312 64.5229 271.905 64.7229 272.305 65.1229C272.712 65.5162 272.915 66.0529 272.915 66.7329C272.915 67.4195 272.715 67.9595 272.315 68.3529C271.922 68.7462 271.325 68.9429 270.525 68.9429H267.575V61.9429H268.955V64.5229ZM275.005 68.9429H273.625V61.9429H275.005V68.9429ZM268.955 67.6429H270.545C271.258 67.6429 271.615 67.3395 271.615 66.7329C271.615 66.1262 271.258 65.8229 270.545 65.8229H268.955V67.6429ZM282.728 68.9429L281.288 66.6929C281.128 66.4462 280.988 66.2795 280.868 66.1929C280.748 66.1062 280.571 66.0629 280.338 66.0629H279.698V68.9429H278.318V61.9429H279.698V64.7329H280.298C280.524 64.7329 280.698 64.6895 280.818 64.6029C280.944 64.5162 281.088 64.3495 281.248 64.1029L282.628 61.9429H284.188L282.538 64.5229C282.211 64.9695 281.941 65.2495 281.728 65.3629C281.981 65.4762 282.264 65.7795 282.578 66.2729L284.288 68.9429H282.728ZM288.379 67.6629L287.879 68.9429H286.349L289.229 61.9429H290.039L292.879 68.9429H291.349L290.849 67.6629H288.379ZM289.619 64.4429L288.859 66.3529H290.369L289.619 64.4429Z" fill="#7F90DB"/>
<path d="M48.1211 81.8857V83.0286C48.1211 83.0286 68.3074 61.5429 90.077 75.1429L89.9074 72.1143C85.3838 69.6571 80.8603 68.6286 76.6195 68.6286C63.7273 68.6286 52.7012 77.6 48.1211 81.8857Z" fill="#7F90DB"/>
<path d="M3.0544 71.9429L2.88477 75.0857C24.7109 61.4857 44.8407 82.9714 44.8407 82.9714V82.0572C40.4302 77.8286 29.2345 68.5714 16.1162 68.5714C11.9319 68.6286 7.52141 69.5429 3.0544 71.9429Z" fill="#7F90DB"/>
<path fill-rule="evenodd" clip-rule="evenodd" d="M16.4555 19.2H16.0032C15.4943 19.2 14.9288 19.2 14.4199 19.2571L25.1634 10.8571L36.6419 17.3714L59.5423 0L80.9161 19.5429C80.69 19.5143 80.4497 19.4857 80.2094 19.4572C79.9691 19.4286 79.7287 19.4 79.5025 19.3714L60.7313 5.62742L56.2051 11.2571L57.2604 5.56916L36.9811 20.0571L25.0503 14.1714L16.4555 19.2Z" fill="#7F90DB"/>
<path d="M76.7872 19.6571C61.0678 19.6571 47.9495 33.0286 46.3663 34.6857C44.8396 33.0286 31.7213 19.6571 15.9454 19.6571C10.3475 19.6571 4.91927 21.3714 -0.0566406 24.7429V73.2C4.97581 69.8286 10.4041 68.1143 16.1151 68.1143C29.1203 68.1143 40.3726 77.2 44.9527 81.5429L44.8961 82.9714C45.1223 82.7429 45.3485 82.5143 45.6312 82.2286C45.9139 82.5143 46.1401 82.7429 46.3663 82.9714V81.6C51.2291 77.2571 63.5558 68.1143 76.6175 68.1143C82.272 68.1143 87.7002 69.8286 92.7892 73.2V24.7429C87.8133 21.3714 82.4416 19.6571 76.7872 19.6571Z" fill="#BDE9FF"/>
<path d="M29.9144 37.6C32.3502 37.6 34.3248 35.6045 34.3248 33.1429C34.3248 30.6812 32.3502 28.6857 29.9144 28.6857C27.4785 28.6857 25.5039 30.6812 25.5039 33.1429C25.5039 35.6045 27.4785 37.6 29.9144 37.6Z" fill="#CF37E3"/>
<path d="M63.7278 41.3143C66.7812 41.8286 69.3257 39.2 68.8734 36.1143C68.5906 34.2857 67.0639 32.7429 65.2545 32.4571C62.2011 31.9429 59.6566 34.5714 60.109 37.6571C60.3917 39.4857 61.8618 41.0286 63.7278 41.3143Z" fill="#CF37E3"/>
<path d="M46.1412 62.0572C48.3464 62.5714 50.2689 60.6286 49.76 58.4C49.5339 57.2572 48.6291 56.4 47.4983 56.1143C45.293 55.6 43.3705 57.5429 43.8794 59.7714C44.1056 60.9143 45.0103 61.7714 46.1412 62.0572Z" fill="#CF37E3"/>
<path d="M70.6247 50L81.6509 40.4571C82.499 39.7143 82.6121 38.4 81.877 37.5429L81.6509 37.3143C80.9158 36.4571 79.6153 36.3429 78.7671 37.0857L71.0771 43.7714C69.5504 45.0857 67.5713 45.8286 65.5357 45.8286H60.2205C59.5986 45.8286 59.0897 46.1143 58.7504 46.5714C58.4677 46.7429 58.2415 46.9714 58.0719 47.2571L52.9263 57.5429C52.4174 58.5143 51.852 59.4286 51.1169 60.2286L48.742 62.9714C48.6289 62.9714 48.5724 62.9143 48.4593 62.9143H45.2363C45.1797 62.9143 45.0667 62.9143 45.0101 62.9143L43.1441 60.8C42.0698 59.5429 41.2216 58.1143 40.6562 56.5143L36.1326 43.4286C36.0196 43.0857 35.7934 42.8 35.5672 42.5714C35.2279 42.1714 34.719 41.9429 34.1536 41.9429H28.7819C26.7463 41.9429 24.8238 41.2 23.2971 39.8857L15.5505 33.2571C14.7023 32.5143 13.4018 32.6286 12.6667 33.4857L12.4406 33.7143C11.7055 34.5714 11.8186 35.8857 12.6667 36.6286L23.7494 46.1714V47.7143C23.7494 47.7143 23.7494 47.7143 23.7494 47.7714V47.8286V63.4857C23.7494 63.5429 23.7494 63.6 23.7494 63.6571C23.7494 63.7143 23.7494 63.7714 23.7494 63.8286V82.9143C23.7494 84.2857 24.6541 85.5429 26.0112 85.8857C27.8772 86.2857 29.5735 84.8571 29.5735 83.0286V68.1714H30.3086V82.9143C30.3086 84.2857 31.2133 85.5429 32.5703 85.8857C34.4363 86.2857 36.1326 84.8571 36.1326 83.0286V63.8286C36.1326 63.7714 36.1326 63.7143 36.1326 63.6571C36.1326 63.6 36.1326 63.5429 36.1326 63.4857V54.8L37.0939 57.6571C38.0552 60.4 39.6949 62.8571 41.8436 64.8C42.4656 65.3714 42.918 65.6571 42.918 65.6571L42.9745 65.7143C43.2572 66.0571 43.4269 66.5143 43.4269 66.9143V68.8571L41.6174 77.1429H42.9745V84.1714C42.9745 84.9143 43.4269 85.6 44.1054 85.8286C45.2928 86.2286 46.3672 85.3143 46.3672 84.2286V77.1429H46.5368H46.763V84.1714C46.763 84.9143 47.2153 85.6 47.8939 85.8286C49.0813 86.2286 50.1556 85.3143 50.1556 84.2286V77.1429H51.7389L50.1556 70.1143V67.2571C50.1556 66.7429 50.4384 66 50.7776 65.6571C50.7776 65.6571 51.9651 64.5714 53.209 63.2571C54.5661 61.9429 55.697 60.3429 56.5452 58.6857L58.2415 55.2571V56.3429L56.0363 74.5143H58.5808V83.1429C58.5808 84.7429 59.8813 86.0571 61.4645 86.0571C63.0478 86.0571 64.3483 84.7429 64.3483 83.1429V74.5143H64.6876H65.0268V83.1429C65.0268 84.7429 66.3273 86.0571 67.9106 86.0571C69.4938 86.0571 70.7943 84.7429 70.7943 83.1429V74.5143H72.943L70.4551 54.1714V51.6571V51.6C70.4551 51.6 70.4551 51.6 70.4551 51.5429V50H70.6247Z" fill="#CF37E3"/>
</g>
<defs>
<clipPath id="clip0_3701_427">
<rect width="294" height="86" fill="white"/>
</clipPath>
</defs>
</svg>
