<svg width="30" height="30" viewBox="0 0 30 30" fill="none" xmlns="http://www.w3.org/2000/svg">
<path d="M25 4.99988H5C3.625 4.99988 2.5 6.12488 2.5 7.49988V22.4999C2.5 23.8749 3.625 24.9999 5 24.9999H25C26.375 24.9999 27.5 23.8749 27.5 22.4999V7.49988C27.5 6.12488 26.375 4.99988 25 4.99988ZM24.5 10.3124L16.325 15.4249C15.5125 15.9374 14.4875 15.9374 13.675 15.4249L5.5 10.3124C5.37466 10.242 5.2649 10.147 5.17736 10.0329C5.08982 9.91894 5.02633 9.78835 4.99072 9.64909C4.95511 9.50983 4.94813 9.3648 4.9702 9.22276C4.99226 9.08073 5.04292 8.94464 5.1191 8.82275C5.19528 8.70086 5.2954 8.5957 5.41341 8.51362C5.53141 8.43155 5.66484 8.37427 5.80562 8.34525C5.9464 8.31624 6.0916 8.31609 6.23244 8.34481C6.37328 8.37354 6.50683 8.43054 6.625 8.51238L15 13.7499L23.375 8.51238C23.4932 8.43054 23.6267 8.37354 23.7676 8.34481C23.9084 8.31609 24.0536 8.31624 24.1944 8.34525C24.3352 8.37427 24.4686 8.43155 24.5866 8.51362C24.7046 8.5957 24.8047 8.70086 24.8809 8.82275C24.9571 8.94464 25.0077 9.08073 25.0298 9.22276C25.0519 9.3648 25.0449 9.50983 25.0093 9.64909C24.9737 9.78835 24.9102 9.91894 24.8226 10.0329C24.7351 10.147 24.6253 10.242 24.5 10.3124Z" fill="#142065"/>
</svg>
