<svg width="30" height="30" viewBox="0 0 30 30" fill="none" xmlns="http://www.w3.org/2000/svg">
<path d="M9.72527 20.2297C13.3542 23.858 17.7738 26.6582 21.3771 26.6582C22.9971 26.6582 24.4156 26.093 25.5583 24.8373C26.2237 24.0964 26.6383 23.2302 26.6383 22.3768C26.6383 21.7489 26.3994 21.1463 25.7972 20.7193L21.9546 17.9818C21.3647 17.58 20.8751 17.3791 20.4229 17.3791C19.8454 17.3791 19.3429 17.7059 18.7654 18.2705L17.874 19.1497C17.8117 19.2128 17.7375 19.2631 17.6556 19.2976C17.5738 19.3321 17.486 19.3501 17.3972 19.3505C17.1963 19.3505 17.0201 19.2755 16.8824 19.2123C16.1163 18.7982 14.7856 17.6555 13.5422 16.425C12.3117 15.1945 11.169 13.8638 10.7672 13.0854C10.6807 12.9317 10.6334 12.7591 10.6296 12.5829C10.6296 12.42 10.6794 12.2561 10.8176 12.1184L11.6962 11.2023C12.2619 10.6243 12.5881 10.1218 12.5881 9.5443C12.5881 9.09269 12.3872 8.60305 11.9731 8.01269L9.27313 4.20805C8.83384 3.60537 8.21884 3.3418 7.54063 3.3418C6.71188 3.3418 5.84563 3.7184 5.11759 4.43465C3.89938 5.60251 3.35938 7.04573 3.35938 8.64001C3.35938 12.2438 6.1092 16.6136 9.72527 20.2297Z" fill="#142065"/>
</svg>
