<svg width="30" height="30" viewBox="0 0 30 30" fill="none" xmlns="http://www.w3.org/2000/svg">
<path fill-rule="evenodd" clip-rule="evenodd" d="M15.0016 16.7675L22.0729 23.8388C22.3086 24.0664 22.6244 24.1924 22.9521 24.1896C23.2799 24.1867 23.5934 24.0553 23.8251 23.8235C24.0569 23.5918 24.1884 23.2782 24.1912 22.9505C24.194 22.6228 24.0681 22.307 23.8404 22.0713L16.7691 15L23.8404 7.92875C24.0681 7.693 24.194 7.37725 24.1912 7.0495C24.1884 6.72176 24.0569 6.40824 23.8251 6.17648C23.5934 5.94472 23.2799 5.81326 22.9521 5.81041C22.6244 5.80756 22.3086 5.93356 22.0729 6.16125L15.0016 13.2325L7.93036 6.16125C7.69355 5.93918 7.37963 5.81796 7.05502 5.82323C6.73042 5.8285 6.4206 5.95986 6.19112 6.1895C5.96164 6.41914 5.83051 6.72905 5.82547 7.05366C5.82043 7.37826 5.94187 7.6921 6.16411 7.92875L13.2341 15L6.16286 22.0713C6.04347 22.1866 5.94824 22.3245 5.88273 22.477C5.81722 22.6295 5.78274 22.7935 5.7813 22.9595C5.77985 23.1255 5.81148 23.2901 5.87433 23.4437C5.93718 23.5973 6.03 23.7369 6.14737 23.8542C6.26473 23.9716 6.4043 24.0644 6.55792 24.1273C6.71154 24.1901 6.87614 24.2218 7.04211 24.2203C7.20809 24.2189 7.37211 24.1844 7.52462 24.1189C7.67712 24.0534 7.81505 23.9581 7.93036 23.8388L15.0016 16.7675Z" fill="#76B5FF"/>
</svg>
