<svg width="615" height="918" viewBox="0 0 615 918" fill="none" xmlns="http://www.w3.org/2000/svg">
<g filter="url(#filter0_f_2001_119)">
<circle cx="156" cy="459" r="265" fill="#CF37E3" fill-opacity="0.3"/>
</g>
<g filter="url(#filter1_d_2001_119)">
<path d="M233.1 492.158L156.972 510.537L146.521 493.281L183.249 484.374C185.028 481.588 186.401 478.672 187.369 475.624C188.373 472.555 188.92 469.435 189.01 466.266C189.114 463.038 188.725 459.782 187.842 456.499C186.995 453.194 185.604 449.943 183.667 446.745C182.042 444.062 180.36 441.866 178.621 440.156C176.919 438.424 175.105 437.212 173.179 436.52C171.253 435.828 169.207 435.685 167.042 436.092C164.892 436.44 162.586 437.36 160.123 438.851C157.587 440.387 155.693 442.112 154.441 444.026C153.189 445.94 152.542 448.065 152.5 450.401C152.458 452.737 152.966 455.318 154.024 458.143C155.06 460.932 156.58 463.98 158.583 467.288L137.965 479.776C134.158 473.491 131.577 467.695 130.221 462.387C128.88 457.021 128.745 452.029 129.816 447.411C130.888 442.794 133.162 438.503 136.638 434.538C140.092 430.537 144.76 426.756 150.64 423.194C162.181 416.205 172.391 413.613 181.271 415.418C190.129 417.187 197.607 423.106 203.706 433.176C205.576 436.264 207.064 439.633 208.17 443.283C209.312 446.911 209.837 450.763 209.743 454.839C209.664 458.855 208.875 463.026 207.375 467.35C205.889 471.616 203.464 475.948 200.1 480.347L222.682 474.958L233.1 492.158Z" fill="#E354F6"/>
</g>
<g filter="url(#filter2_f_2001_119)">
<path d="M233.1 492.158L156.972 510.537L146.521 493.281L183.249 484.374C185.028 481.588 186.401 478.672 187.369 475.624C188.373 472.555 188.92 469.435 189.01 466.266C189.114 463.038 188.725 459.782 187.842 456.499C186.995 453.194 185.604 449.943 183.667 446.745C182.042 444.062 180.36 441.866 178.621 440.156C176.919 438.424 175.105 437.212 173.179 436.52C171.253 435.828 169.207 435.685 167.042 436.092C164.892 436.44 162.586 437.36 160.123 438.851C157.587 440.387 155.693 442.112 154.441 444.026C153.189 445.94 152.542 448.065 152.5 450.401C152.458 452.737 152.966 455.318 154.024 458.143C155.06 460.932 156.58 463.98 158.583 467.288L137.965 479.776C134.158 473.491 131.577 467.695 130.221 462.387C128.88 457.021 128.745 452.029 129.816 447.411C130.888 442.794 133.162 438.503 136.638 434.538C140.092 430.537 144.76 426.756 150.64 423.194C162.181 416.205 172.391 413.613 181.271 415.418C190.129 417.187 197.607 423.106 203.706 433.176C205.576 436.264 207.064 439.633 208.17 443.283C209.312 446.911 209.837 450.763 209.743 454.839C209.664 458.855 208.875 463.026 207.375 467.35C205.889 471.616 203.464 475.948 200.1 480.347L222.682 474.958L233.1 492.158Z" fill="#E354F6"/>
</g>
<defs>
<filter id="filter0_f_2001_119" x="-303" y="0" width="918" height="918" filterUnits="userSpaceOnUse" color-interpolation-filters="sRGB">
<feFlood flood-opacity="0" result="BackgroundImageFix"/>
<feBlend mode="normal" in="SourceGraphic" in2="BackgroundImageFix" result="shape"/>
<feGaussianBlur stdDeviation="97" result="effect1_foregroundBlur_2001_119"/>
</filter>
<filter id="filter1_d_2001_119" x="102.295" y="402.359" width="189.436" height="276.633" filterUnits="userSpaceOnUse" color-interpolation-filters="sRGB">
<feFlood flood-opacity="0" result="BackgroundImageFix"/>
<feColorMatrix in="SourceAlpha" type="matrix" values="0 0 0 0 0 0 0 0 0 0 0 0 0 0 0 0 0 0 127 0" result="hardAlpha"/>
<feOffset dx="20" dy="114"/>
<feGaussianBlur stdDeviation="17"/>
<feComposite in2="hardAlpha" operator="out"/>
<feColorMatrix type="matrix" values="0 0 0 0 0.155994 0 0 0 0 0.111042 0 0 0 0 0.341667 0 0 0 0.7 0"/>
<feBlend mode="normal" in2="BackgroundImageFix" result="effect1_dropShadow_2001_119"/>
<feBlend mode="normal" in="SourceGraphic" in2="effect1_dropShadow_2001_119" result="shape"/>
</filter>
<filter id="filter2_f_2001_119" x="103.295" y="389.359" width="147.436" height="154.633" filterUnits="userSpaceOnUse" color-interpolation-filters="sRGB">
<feFlood flood-opacity="0" result="BackgroundImageFix"/>
<feBlend mode="normal" in="SourceGraphic" in2="BackgroundImageFix" result="shape"/>
<feGaussianBlur stdDeviation="6.5" result="effect1_foregroundBlur_2001_119"/>
</filter>
</defs>
</svg>
