<svg width="64" height="64" viewBox="0 0 64 64" fill="none" xmlns="http://www.w3.org/2000/svg">
<path d="M21.1718 6.54419C20.4219 7.2943 20.0007 8.31154 20.0007 9.37219C20.0007 10.4329 20.4219 11.4501 21.1718 12.2002L40.9718 32.0002L21.1718 51.8002C20.4432 52.5546 20.04 53.565 20.0491 54.6138C20.0582 55.6626 20.4789 56.6658 21.2205 57.4075C21.9622 58.1491 22.9654 58.5698 24.0142 58.5789C25.063 58.588 26.0734 58.1848 26.8278 57.4562L49.4558 34.8282C50.2057 34.0781 50.627 33.0608 50.627 32.0002C50.627 30.9395 50.2057 29.9223 49.4558 29.1722L26.8278 6.54419C26.0777 5.79431 25.0605 5.37305 23.9998 5.37305C22.9391 5.37305 21.9219 5.79431 21.1718 6.54419Z" fill="#667CFF"/>
</svg>
