<svg width="64" height="64" viewBox="0 0 64 64" fill="none" xmlns="http://www.w3.org/2000/svg">
<path d="M42.8282 57.4558C43.5781 56.7057 43.9993 55.6885 43.9993 54.6278C43.9993 53.5671 43.5781 52.5499 42.8282 51.7998L23.0282 31.9998L42.8282 12.1998C43.5568 11.4454 43.96 10.435 43.9509 9.3862C43.9418 8.33742 43.5211 7.33416 42.7795 6.59253C42.0378 5.8509 41.0346 5.43023 39.9858 5.42111C38.937 5.412 37.9266 5.81518 37.1722 6.54381L14.5442 29.1718C13.7943 29.9219 13.373 30.9392 13.373 31.9998C13.373 33.0605 13.7943 34.0777 14.5442 34.8278L37.1722 57.4558C37.9223 58.2057 38.9395 58.627 40.0002 58.627C41.0609 58.627 42.0781 58.2057 42.8282 57.4558Z" fill="#667CFF"/>
</svg>
