<svg width="60" height="60" viewBox="0 0 60 60" fill="none" xmlns="http://www.w3.org/2000/svg">
<path d="M16.7397 32.7661C16.8398 32.6601 16.946 32.56 17.0577 32.4661C16.0122 32.3224 15.0108 31.9517 14.1237 31.3801C12.5457 31.4161 9.78566 32.1601 8.62766 33.3601C5.62766 36.4321 4.97966 42.4921 4.84766 47.4001H11.9637C11.9637 47.3581 11.9637 47.3161 11.9637 47.2741C12.4617 40.3201 14.0217 35.5741 16.7397 32.7661Z" fill="#142065"/>
<path d="M19.2716 14.9999C19.5044 13.7872 19.98 12.6341 20.6696 11.6099C20.1067 11.4794 19.5315 11.409 18.9536 11.3999C15.2696 11.3999 11.8256 13.9619 11.2076 17.3159C11.0516 18.1679 10.7756 20.5379 12.0656 25.4219C12.4568 26.9323 13.3538 28.2631 14.6072 29.1922C15.8607 30.1214 17.3947 30.5928 18.9536 30.5279C20.2791 30.545 21.5848 30.2052 22.7336 29.5439C21.5772 28.3329 20.7509 26.8455 20.3336 25.2239C19.1996 20.9999 18.8216 17.4359 19.2716 14.9999Z" fill="#142065"/>
<path d="M48.0312 47.2741C48.0312 47.3161 48.0312 47.3581 48.0312 47.4001H55.1532C55.0212 42.4741 54.3372 36.3901 51.3432 33.3301C50.1912 32.1301 47.4432 31.4161 45.8772 31.3801C44.9924 31.952 43.9929 32.3227 42.9492 32.4661C43.0452 32.5501 43.1352 32.6401 43.2252 32.7301C45.9612 35.5321 47.5332 40.2901 48.0312 47.2741Z" fill="#142065"/>
<path d="M39.8522 25.2C39.4233 26.8278 38.5823 28.3177 37.4102 29.526C38.5554 30.1847 39.8571 30.5226 41.1782 30.504C42.7371 30.5689 44.2711 30.0975 45.5246 29.1683C46.778 28.2392 47.675 26.9084 48.0662 25.398C49.3562 20.514 49.0802 18.144 48.9182 17.292C48.3182 13.938 44.8622 11.37 41.1782 11.376C40.6071 11.3772 40.0379 11.4396 39.4802 11.562C40.1783 12.5993 40.6542 13.7698 40.8782 15C41.3282 17.436 40.9742 21 39.8522 25.2Z" fill="#142065"/>
<path d="M41.9351 33.984C41.1653 33.2909 40.2544 32.773 39.2651 32.466C38.6561 32.2485 38.0326 32.074 37.3991 31.944C36.7935 31.8103 36.1769 31.732 35.5571 31.71C34.2369 32.5408 32.7234 33.0143 31.1651 33.084C30.9011 33.084 30.6371 33.084 30.3731 33.084H29.6351C29.3711 33.084 29.1071 33.084 28.8431 33.084C27.2827 33.0153 25.767 32.5418 24.4451 31.71C23.8255 31.7346 23.2092 31.8129 22.6031 31.944C21.9763 32.0748 21.359 32.2472 20.7551 32.46C19.7451 32.7772 18.8158 33.3094 18.0311 34.02C15.1511 37.02 14.1251 42.378 13.7651 47.4C13.6931 48.42 13.6511 49.434 13.6211 50.4H46.3811C46.3811 49.434 46.3091 48.42 46.2311 47.4C45.8771 42.36 44.8391 36.954 41.9351 33.984Z" fill="#142065"/>
<path fill-rule="evenodd" clip-rule="evenodd" d="M38.9346 15.3481C38.2266 11.4781 34.2486 8.50806 30.0006 8.52006C25.7526 8.53206 21.7746 11.4781 21.0666 15.3481C20.8866 16.3321 20.5626 19.0681 22.0506 24.7081C22.9146 27.9781 25.7526 30.6001 30.0006 30.6001C34.2486 30.6001 37.0866 27.9841 37.9506 24.7141C39.4386 19.0681 39.1146 16.3321 38.9346 15.3481Z" fill="#142065"/>
</svg>
