<svg width="60" height="60" viewBox="0 0 60 60" fill="none" xmlns="http://www.w3.org/2000/svg">
<g clip-path="url(#clip0_3736_1134)">
<path fill-rule="evenodd" clip-rule="evenodd" d="M23.2849 16.5611C22.5088 12.8436 18.1717 9.99349 13.5019 10C8.83221 10.0065 4.56685 12.824 3.77117 16.5611C3.57551 17.5068 3.22332 20.1351 4.85382 25.5549C5.79298 28.692 8.89091 31.2094 13.528 31.2094C18.1651 31.2094 21.2631 28.692 22.2088 25.5549C23.8327 20.1351 23.4805 17.5068 23.2849 16.5611Z" fill="#142065"/>
<path fill-rule="evenodd" clip-rule="evenodd" d="M23.1115 35.4776C22.218 34.8115 21.1404 34.3483 19.9793 34.1312C18.1709 35.5282 15.7906 36.2688 13.3475 36.1945C10.9078 36.2671 8.53092 35.5288 6.72207 34.1367C5.5556 34.3596 4.47398 34.8282 3.57694 35.4995C0.766947 38.0663 0.128899 45.6847 0 49.7839H26.74C26.6111 45.6683 25.9602 38.0335 23.1115 35.4776Z" fill="#142065"/>
<path fill-rule="evenodd" clip-rule="evenodd" d="M53.6456 35.4752C52.735 34.8105 51.6363 34.3482 50.452 34.1312C48.6016 35.5256 46.1678 36.2647 43.6698 36.1909C41.1695 36.2662 38.733 35.5269 36.881 34.1312C35.6951 34.3567 34.5968 34.8265 33.6874 35.4971C30.7902 38.0649 30.1317 45.6809 30 49.7839H57.3922C57.2276 45.6645 56.5626 38.0321 53.6456 35.4752Z" fill="#142065"/>
<path d="M56.4029 19.8677C55.523 19.6349 54.61 19.5533 53.7028 19.6264C53.8079 18.6083 53.7662 17.5803 53.5789 16.5741C53.1297 14.7795 52.0364 13.2126 50.507 12.1718C49.3885 11.3596 48.1275 10.7645 46.7895 10.4174C45.8152 10.1561 44.8112 10.0223 43.8025 10.0195C42.6398 10.021 41.4837 10.1946 40.3719 10.5348C38.8762 10.9846 37.4964 11.7546 36.3283 12.7914C35.1753 13.7822 34.3668 15.1136 34.0195 16.5937C33.844 17.5948 33.8089 18.6155 33.9152 19.6264C33.0101 19.5529 32.0992 19.6345 31.2216 19.8677C29.6694 20.2851 26.9106 22.4308 27.7845 25.8809C28.1497 27.3158 30.4585 29.0506 32.076 30.042C31.1694 27.4984 31.3064 25.2874 31.9586 23.9113C32.438 22.9737 33.2191 22.2248 34.176 21.7851C34.4087 23.0742 34.7179 24.3482 35.1021 25.6005C35.1478 25.7505 35.2 25.894 35.2522 26.0375C36.3478 28.9789 39.3675 31.255 43.8025 31.255C48.2374 31.255 51.2636 28.9528 52.3527 25.9983C52.4049 25.8614 52.4571 25.7244 52.4962 25.5809C52.8792 24.3279 53.1905 23.054 53.4289 21.7656C54.3871 22.2105 55.1664 22.9668 55.6398 23.9113C56.292 25.3005 56.4355 27.5114 55.542 30.055C57.1594 29.0637 59.4552 27.3288 59.8334 25.894C60.7074 22.4308 57.9486 20.2851 56.4029 19.8677Z" fill="#142065"/>
</g>
<defs>
<clipPath id="clip0_3736_1134">
<rect width="60" height="60" fill="white"/>
</clipPath>
</defs>
</svg>
