<svg width="60" height="60" viewBox="0 0 60 60" fill="none" xmlns="http://www.w3.org/2000/svg">
<path d="M41.9351 33.984C41.1653 33.2909 40.2544 32.773 39.2651 32.466C38.6561 32.2485 38.0326 32.074 37.3991 31.944C36.7935 31.8103 36.1769 31.732 35.5571 31.71C34.2369 32.5408 32.7234 33.0143 31.1651 33.084C30.9011 33.084 30.6371 33.084 30.3731 33.084H29.6351C29.3711 33.084 29.1071 33.084 28.8431 33.084C27.2827 33.0153 25.767 32.5418 24.4451 31.71C23.8255 31.7346 23.2092 31.8129 22.6031 31.944C21.9763 32.0748 21.359 32.2472 20.7551 32.46C19.7451 32.7772 18.8158 33.3094 18.0311 34.02C15.1511 37.02 14.1251 42.378 13.7651 47.4C13.6931 48.42 13.6511 49.434 13.6211 50.4H46.3811C46.3811 49.434 46.3091 48.42 46.2311 47.4C45.8771 42.36 44.8391 36.954 41.9351 33.984Z" fill="#142065"/>
<path fill-rule="evenodd" clip-rule="evenodd" d="M38.9346 15.3481C38.2266 11.4781 34.2486 8.50806 30.0006 8.52006C25.7526 8.53206 21.7746 11.4781 21.0666 15.3481C20.8866 16.3321 20.5626 19.0681 22.0506 24.7081C22.9146 27.9781 25.7526 30.6001 30.0006 30.6001C34.2486 30.6001 37.0866 27.9841 37.9506 24.7141C39.4386 19.0681 39.1146 16.3321 38.9346 15.3481Z" fill="#142065"/>
</svg>
