<svg width="60" height="60" viewBox="0 0 60 60" fill="none" xmlns="http://www.w3.org/2000/svg">
<g clip-path="url(#clip0_3736_1067)">
<path d="M55.2926 33.6344L55.2815 33.623L55.2696 33.6124C54.4488 32.8733 53.4778 32.3204 52.4234 31.9916C51.7967 31.7682 51.155 31.5889 50.5033 31.4549C49.8692 31.3152 49.2237 31.2333 48.5748 31.2103L48.421 31.2048L48.2908 31.2868C47.047 32.0696 45.6217 32.5165 44.1538 32.584H44.1527H44.1512H44.1496H44.1481H44.1465H44.145H44.1434H44.1419H44.1403H44.1388H44.1373H44.1357H44.1342H44.1326H44.1311H44.1295H44.128H44.1264H44.1249H44.1233H44.1218H44.1202H44.1187H44.1171H44.1156H44.114H44.1125H44.111H44.1094H44.1079H44.1063H44.1048H44.1032H44.1017H44.1001H44.0986H44.097H44.0955H44.0939H44.0924H44.0908H44.0893H44.0878H44.0862H44.0847H44.0831H44.0816H44.08H44.0785H44.0769H44.0754H44.0738H44.0723H44.0707H44.0692H44.0676H44.0661H44.0645H44.063H44.0615H44.0599H44.0584H44.0568H44.0553H44.0537H44.0522H44.0506H44.0491H44.0475H44.046H44.0444H44.0429H44.0413H44.0398H44.0382H44.0367H44.0352H44.0336H44.0321H44.0305H44.029H44.0274H44.0259H44.0243H44.0228H44.0212H44.0197H44.0181H44.0166H44.015H44.0135H44.012H44.0104H44.0089H44.0073H44.0058H44.0042H44.0027H44.0011H43.9996H43.998H43.9965H43.9949H43.9934H43.9918H43.9903H43.9888H43.9872H43.9857H43.9841H43.9826H43.981H43.9795H43.9779H43.9764H43.9748H43.9733H43.9717H43.9702H43.9686H43.9671H43.9655H43.964H43.9625H43.9609H43.9594H43.9578H43.9563H43.9547H43.9532H43.9516H43.9501H43.9485H43.947H43.9454H43.9439H43.9423H43.9408H43.9393H43.9377H43.9362H43.9346H43.9331H43.9315H43.93H43.9284H43.9269H43.9253H43.9238H43.9222H43.9207H43.9191H43.9176H43.916H43.9145H43.913H43.9114H43.9099H43.9083H43.9068H43.9052H43.9037H43.9021H43.9006H43.899H43.8975H43.8959H43.8944H43.8928H43.8913H43.8898H43.8882H43.8867H43.8851H43.8836H43.882H43.8805H43.8789H43.8774H43.8758H43.8743H43.8727H43.8712H43.8696H43.8681H43.8665H43.865H43.8635H43.8619H43.8604H43.8588H43.8573H43.8557H43.8542H43.8526H43.8511H43.8495H43.848H43.8464H43.8449H43.8433H43.8418H43.8403H43.8387H43.8372H43.8356H43.8341H43.8325H43.831H43.8294H43.8279H43.8263H43.8248H43.8232H43.8217H43.8201H43.8186H43.817H43.8155H43.814H43.8124H43.8109H43.8093H43.8078H43.8062H43.8047H43.8031H43.8016H43.8H43.7985H43.7969H43.7954H43.7938H43.7923H43.7908H43.7892H43.7877H43.7861H43.7846H43.783H43.7815H43.7799H43.7784H43.7768H43.7753H43.7737H43.7722H43.7706H43.7691H43.7675H43.766H43.7645H43.7629H43.7614H43.7598H43.7583H43.7567H43.7552H43.7536H43.7521H43.7505H43.749H43.7474H43.7459H43.7443H43.7428H43.7413H43.7397H43.7382H43.7366H43.7351H43.7335H43.732H43.7304H43.7289H43.7273H43.7258H43.7242H43.7227H43.7211H43.7196H43.718H43.7165H43.715H43.7134H43.7119H43.7103H43.7088H43.7072H43.7057H43.7041H43.7026H43.701H43.6995H43.6979H43.6964H43.6948H43.6933H43.6918H43.6902H43.6887H43.6871H43.6856H43.684H43.6825H43.6809H43.6794H43.6778H43.6763H43.6747H43.6732H43.6716H43.6701H43.6685H43.667H43.6655H43.6639H43.6624H43.6608H43.6593H43.6577H43.6562H43.6546H43.6531H43.6515H43.65H43.6484H43.6469H43.6453H43.6438H43.6423H43.6407H43.6392H43.6376H43.6361H43.6345H43.633H43.6314H43.6299H43.6283H43.6268H43.6252H43.6237H43.6221H43.6206H43.619H43.6175H43.616H43.6144H43.6129H43.6113H43.6098H43.6082H43.6067H43.6051H43.6036H43.602H43.6005H43.5989H43.5974H43.5958H43.5943H43.5928H43.5912H43.5897H43.5881H43.5866H43.585H43.5835H43.5819H43.5804H43.5788H43.5773H43.5757H43.5742H43.5726H43.5711H43.5695H43.568H43.5665H43.5649H43.5634H43.5618H43.5603H43.5587H43.5572H43.5556H43.5541H43.5525H43.551H43.5494H43.5479H43.5463H43.5448H43.5433H43.5417H43.5402H43.5386H43.5371H43.5355H43.534H43.5324H43.5309H43.5293H43.5278H43.5262H43.5247H43.5231H43.5216H43.52H43.5185H43.517H43.5154H43.5139H43.5123H43.5108H43.5092H43.5077H43.5061H43.5046H43.503H43.5015H43.4999H43.4984H43.4968H43.4953H43.4938H43.4922H43.4907H43.4891H43.4876H43.486H43.4845H43.4829H43.4814H43.4798H43.4783H43.4767H43.4752H43.4736H43.4721H43.4705H43.469H43.4675H43.4659H43.4644H43.4628H43.4613H43.4597H43.4582H43.4566H43.4551H43.4535H43.452H43.4504H43.4489H43.4473H43.4458H43.4443H43.4427H43.4412H43.4396H43.4381H43.4365H43.435H43.4334H43.4319H43.4303H43.4288H43.4272H43.4257H43.4241H43.4226H43.421H43.4195H43.418H43.4164H43.4149H43.4133H43.4118H43.4102H43.4087H43.4071H43.4056H43.404H43.4025H43.4009H43.3994H43.3978H43.3963H43.3948H43.3932H43.3917H43.3901H43.3886H43.387H43.3855H43.3839H43.3824H43.3808H43.3793H43.3777H43.3762H43.3746H43.3731H42.6351H42.6335H42.632H42.6305H42.6289H42.6274H42.6258H42.6243H42.6227H42.6212H42.6196H42.6181H42.6165H42.615H42.6134H42.6119H42.6103H42.6088H42.6073H42.6057H42.6042H42.6026H42.6011H42.5995H42.598H42.5964H42.5949H42.5933H42.5918H42.5902H42.5887H42.5871H42.5856H42.584H42.5825H42.581H42.5794H42.5779H42.5763H42.5748H42.5732H42.5717H42.5701H42.5686H42.567H42.5655H42.5639H42.5624H42.5608H42.5593H42.5578H42.5562H42.5547H42.5531H42.5516H42.55H42.5485H42.5469H42.5454H42.5438H42.5423H42.5407H42.5392H42.5376H42.5361H42.5345H42.533H42.5315H42.5299H42.5284H42.5268H42.5253H42.5237H42.5222H42.5206H42.5191H42.5175H42.516H42.5144H42.5129H42.5113H42.5098H42.5083H42.5067H42.5052H42.5036H42.5021H42.5005H42.499H42.4974H42.4959H42.4943H42.4928H42.4912H42.4897H42.4881H42.4866H42.485H42.4835H42.482H42.4804H42.4789H42.4773H42.4758H42.4742H42.4727H42.4711H42.4696H42.468H42.4665H42.4649H42.4634H42.4618H42.4603H42.4588H42.4572H42.4557H42.4541H42.4526H42.451H42.4495H42.4479H42.4464H42.4448H42.4433H42.4417H42.4402H42.4386H42.4371H42.4355H42.434H42.4325H42.4309H42.4294H42.4278H42.4263H42.4247H42.4232H42.4216H42.4201H42.4185H42.417H42.4154H42.4139H42.4123H42.4108H42.4093H42.4077H42.4062H42.4046H42.4031H42.4015H42.4H42.3984H42.3969H42.3953H42.3938H42.3922H42.3907H42.3891H42.3876H42.386H42.3845H42.383H42.3814H42.3799H42.3783H42.3768H42.3752H42.3737H42.3721H42.3706H42.369H42.3675H42.3659H42.3644H42.3628H42.3613H42.3598H42.3582H42.3567H42.3551H42.3536H42.352H42.3505H42.3489H42.3474H42.3458H42.3443H42.3427H42.3412H42.3396H42.3381H42.3365H42.335H42.3335H42.3319H42.3304H42.3288H42.3273H42.3257H42.3242H42.3226H42.3211H42.3195H42.318H42.3164H42.3149H42.3133H42.3118H42.3103H42.3087H42.3072H42.3056H42.3041H42.3025H42.301H42.2994H42.2979H42.2963H42.2948H42.2932H42.2917H42.2901H42.2886H42.287H42.2855H42.284H42.2824H42.2809H42.2793H42.2778H42.2762H42.2747H42.2731H42.2716H42.27H42.2685H42.2669H42.2654H42.2638H42.2623H42.2608H42.2592H42.2577H42.2561H42.2546H42.253H42.2515H42.2499H42.2484H42.2468H42.2453H42.2437H42.2422H42.2406H42.2391H42.2375H42.236H42.2345H42.2329H42.2314H42.2298H42.2283H42.2267H42.2252H42.2236H42.2221H42.2205H42.219H42.2174H42.2159H42.2143H42.2128H42.2113H42.2097H42.2082H42.2066H42.2051H42.2035H42.202H42.2004H42.1989H42.1973H42.1958H42.1942H42.1927H42.1911H42.1896H42.188H42.1865H42.185H42.1834H42.1819H42.1803H42.1788H42.1772H42.1757H42.1741H42.1726H42.171H42.1695H42.1679H42.1664H42.1648H42.1633H42.1618H42.1602H42.1587H42.1571H42.1556H42.154H42.1525H42.1509H42.1494H42.1478H42.1463H42.1447H42.1432H42.1416H42.1401H42.1385H42.137H42.1355H42.1339H42.1324H42.1308H42.1293H42.1277H42.1262H42.1246H42.1231H42.1215H42.12H42.1184H42.1169H42.1153H42.1138H42.1123H42.1107H42.1092H42.1076H42.1061H42.1045H42.103H42.1014H42.0999H42.0983H42.0968H42.0952H42.0937H42.0921H42.0906H42.089H42.0875H42.086H42.0844H42.0829H42.0813H42.0798H42.0782H42.0767H42.0751H42.0736H42.072H42.0705H42.0689H42.0674H42.0658H42.0643H42.0628H42.0612H42.0597H42.0581H42.0566H42.055H42.0535H42.0519H42.0504H42.0488H42.0473H42.0457H42.0442H42.0426H42.0411H42.0395H42.038H42.0365H42.0349H42.0334H42.0318H42.0303H42.0287H42.0272H42.0256H42.0241H42.0225H42.021H42.0194H42.0179H42.0163H42.0148H42.0133H42.0117H42.0102H42.0086H42.0071H42.0055H42.004H42.0024H42.0009H41.9993H41.9978H41.9962H41.9947H41.9931H41.9916H41.99H41.9885H41.987H41.9854H41.9839H41.9823H41.9808H41.9792H41.9777H41.9761H41.9746H41.973H41.9715H41.9699H41.9684H41.9668H41.9653H41.9638H41.9622H41.9607H41.9591H41.9576H41.956H41.9545H41.9529H41.9514H41.9498H41.9483H41.9467H41.9452H41.9436H41.9421H41.9405H41.939H41.9375H41.9359H41.9344H41.9328H41.9313H41.9297H41.9282H41.9266H41.9251H41.9235H41.922H41.9204H41.9189H41.9173H41.9158H41.9143H41.9127H41.9112H41.9096H41.9081H41.9065H41.905H41.9034H41.9019H41.9003H41.8988H41.8972H41.8957H41.8941H41.8926H41.891H41.8895H41.888H41.8864H41.8849H41.8833H41.8818H41.8802H41.8787H41.8771H41.8756H41.874H41.8725H41.8709H41.8694H41.8678H41.8663H41.8648H41.8632H41.8617H41.8601H41.8586H41.857H41.8555H41.8542C40.3844 32.5174 38.9568 32.0705 37.7114 31.2868L37.5802 31.2042L37.4252 31.2104C36.7773 31.2361 36.1329 31.3179 35.4992 31.4549C34.8541 31.5896 34.2186 31.7669 33.597 31.9855C32.5213 32.3247 31.5316 32.8923 30.6955 33.6493L30.6825 33.6611L30.6704 33.6737C29.1514 35.256 28.145 37.4327 27.4719 39.8158C26.7976 42.2033 26.4476 44.8354 26.2664 47.3642L26.2663 47.3648C26.1937 48.3939 26.1514 49.4152 26.1213 50.3844L26.1053 50.9H26.6211H59.3811H59.8811V50.4C59.8811 49.413 59.8076 48.3819 59.7298 47.3637C59.5515 44.8259 59.2 42.1774 58.5204 39.7794C57.8421 37.3858 56.8261 35.2027 55.2926 33.6344Z" fill="#142065" stroke="#667CFF"/>
<path fill-rule="evenodd" clip-rule="evenodd" d="M51.9346 15.3481C51.2266 11.4781 47.2486 8.50806 43.0006 8.52006C38.7526 8.53206 34.7746 11.4781 34.0666 15.3481C33.8866 16.3321 33.5626 19.0681 35.0506 24.7081C35.9146 27.9781 38.7526 30.6001 43.0006 30.6001C47.2486 30.6001 50.0866 27.9841 50.9506 24.7141C52.4386 19.0681 52.1146 16.3321 51.9346 15.3481Z" fill="#142065"/>
<path d="M29.6501 33.2848L29.6279 33.2621L29.6042 33.2408C28.7322 32.4557 27.7014 31.8679 26.5819 31.5173C25.9373 31.288 25.2775 31.1038 24.6074 30.9659C23.9449 30.8201 23.2705 30.7347 22.5926 30.7106L22.285 30.6997L22.0244 30.8636C20.8571 31.5983 19.5196 32.0187 18.1421 32.084H18.1419H18.1403H18.1388H18.1373H18.1357H18.1342H18.1326H18.1311H18.1295H18.128H18.1264H18.1249H18.1233H18.1218H18.1202H18.1187H18.1171H18.1156H18.114H18.1125H18.111H18.1094H18.1079H18.1063H18.1048H18.1032H18.1017H18.1001H18.0986H18.097H18.0955H18.0939H18.0924H18.0908H18.0893H18.0878H18.0862H18.0847H18.0831H18.0816H18.08H18.0785H18.0769H18.0754H18.0738H18.0723H18.0707H18.0692H18.0676H18.0661H18.0645H18.063H18.0615H18.0599H18.0584H18.0568H18.0553H18.0537H18.0522H18.0506H18.0491H18.0475H18.046H18.0444H18.0429H18.0413H18.0398H18.0382H18.0367H18.0352H18.0336H18.0321H18.0305H18.029H18.0274H18.0259H18.0243H18.0228H18.0212H18.0197H18.0181H18.0166H18.015H18.0135H18.012H18.0104H18.0089H18.0073H18.0058H18.0042H18.0027H18.0011H17.9996H17.998H17.9965H17.9949H17.9934H17.9918H17.9903H17.9888H17.9872H17.9857H17.9841H17.9826H17.981H17.9795H17.9779H17.9764H17.9748H17.9733H17.9717H17.9702H17.9686H17.9671H17.9655H17.964H17.9625H17.9609H17.9594H17.9578H17.9563H17.9547H17.9532H17.9516H17.9501H17.9485H17.947H17.9454H17.9439H17.9423H17.9408H17.9393H17.9377H17.9362H17.9346H17.9331H17.9315H17.93H17.9284H17.9269H17.9253H17.9238H17.9222H17.9207H17.9191H17.9176H17.916H17.9145H17.913H17.9114H17.9099H17.9083H17.9068H17.9052H17.9037H17.9021H17.9006H17.899H17.8975H17.8959H17.8944H17.8928H17.8913H17.8898H17.8882H17.8867H17.8851H17.8836H17.882H17.8805H17.8789H17.8774H17.8758H17.8743H17.8727H17.8712H17.8696H17.8681H17.8665H17.865H17.8635H17.8619H17.8604H17.8588H17.8573H17.8557H17.8542H17.8526H17.8511H17.8495H17.848H17.8464H17.8449H17.8433H17.8418H17.8403H17.8387H17.8372H17.8356H17.8341H17.8325H17.831H17.8294H17.8279H17.8263H17.8248H17.8232H17.8217H17.8201H17.8186H17.817H17.8155H17.814H17.8124H17.8109H17.8093H17.8078H17.8062H17.8047H17.8031H17.8016H17.8H17.7985H17.7969H17.7954H17.7938H17.7923H17.7908H17.7892H17.7877H17.7861H17.7846H17.783H17.7815H17.7799H17.7784H17.7768H17.7753H17.7737H17.7722H17.7706H17.7691H17.7675H17.766H17.7645H17.7629H17.7614H17.7598H17.7583H17.7567H17.7552H17.7536H17.7521H17.7505H17.749H17.7474H17.7459H17.7443H17.7428H17.7413H17.7397H17.7382H17.7366H17.7351H17.7335H17.732H17.7304H17.7289H17.7273H17.7258H17.7242H17.7227H17.7211H17.7196H17.718H17.7165H17.715H17.7134H17.7119H17.7103H17.7088H17.7072H17.7057H17.7041H17.7026H17.701H17.6995H17.6979H17.6964H17.6948H17.6933H17.6918H17.6902H17.6887H17.6871H17.6856H17.684H17.6825H17.6809H17.6794H17.6778H17.6763H17.6747H17.6732H17.6716H17.6701H17.6685H17.667H17.6655H17.6639H17.6624H17.6608H17.6593H17.6577H17.6562H17.6546H17.6531H17.6515H17.65H17.6484H17.6469H17.6453H17.6438H17.6423H17.6407H17.6392H17.6376H17.6361H17.6345H17.633H17.6314H17.6299H17.6283H17.6268H17.6252H17.6237H17.6221H17.6206H17.619H17.6175H17.616H17.6144H17.6129H17.6113H17.6098H17.6082H17.6067H17.6051H17.6036H17.602H17.6005H17.5989H17.5974H17.5958H17.5943H17.5928H17.5912H17.5897H17.5881H17.5866H17.585H17.5835H17.5819H17.5804H17.5788H17.5773H17.5757H17.5742H17.5726H17.5711H17.5695H17.568H17.5665H17.5649H17.5634H17.5618H17.5603H17.5587H17.5572H17.5556H17.5541H17.5525H17.551H17.5494H17.5479H17.5463H17.5448H17.5433H17.5417H17.5402H17.5386H17.5371H17.5355H17.534H17.5324H17.5309H17.5293H17.5278H17.5262H17.5247H17.5231H17.5216H17.52H17.5185H17.517H17.5154H17.5139H17.5123H17.5108H17.5092H17.5077H17.5061H17.5046H17.503H17.5015H17.4999H17.4984H17.4968H17.4953H17.4938H17.4922H17.4907H17.4891H17.4876H17.486H17.4845H17.4829H17.4814H17.4798H17.4783H17.4767H17.4752H17.4736H17.4721H17.4705H17.469H17.4675H17.4659H17.4644H17.4628H17.4613H17.4597H17.4582H17.4566H17.4551H17.4535H17.452H17.4504H17.4489H17.4473H17.4458H17.4443H17.4427H17.4412H17.4396H17.4381H17.4365H17.435H17.4334H17.4319H17.4303H17.4288H17.4272H17.4257H17.4241H17.4226H17.421H17.4195H17.418H17.4164H17.4149H17.4133H17.4118H17.4102H17.4087H17.4071H17.4056H17.404H17.4025H17.4009H17.3994H17.3978H17.3963H17.3948H17.3932H17.3917H17.3901H17.3886H17.387H17.3855H17.3839H17.3824H17.3808H17.3793H17.3777H17.3762H17.3746H17.3731H16.6351H16.6335H16.632H16.6305H16.6289H16.6274H16.6258H16.6243H16.6227H16.6212H16.6196H16.6181H16.6165H16.615H16.6134H16.6119H16.6103H16.6088H16.6073H16.6057H16.6042H16.6026H16.6011H16.5995H16.598H16.5964H16.5949H16.5933H16.5918H16.5902H16.5887H16.5871H16.5856H16.584H16.5825H16.581H16.5794H16.5779H16.5763H16.5748H16.5732H16.5717H16.5701H16.5686H16.567H16.5655H16.5639H16.5624H16.5608H16.5593H16.5578H16.5562H16.5547H16.5531H16.5516H16.55H16.5485H16.5469H16.5454H16.5438H16.5423H16.5407H16.5392H16.5376H16.5361H16.5345H16.533H16.5315H16.5299H16.5284H16.5268H16.5253H16.5237H16.5222H16.5206H16.5191H16.5175H16.516H16.5144H16.5129H16.5113H16.5098H16.5083H16.5067H16.5052H16.5036H16.5021H16.5005H16.499H16.4974H16.4959H16.4943H16.4928H16.4912H16.4897H16.4881H16.4866H16.485H16.4835H16.482H16.4804H16.4789H16.4773H16.4758H16.4742H16.4727H16.4711H16.4696H16.468H16.4665H16.4649H16.4634H16.4618H16.4603H16.4588H16.4572H16.4557H16.4541H16.4526H16.451H16.4495H16.4479H16.4464H16.4448H16.4433H16.4417H16.4402H16.4386H16.4371H16.4355H16.434H16.4325H16.4309H16.4294H16.4278H16.4263H16.4247H16.4232H16.4216H16.4201H16.4185H16.417H16.4154H16.4139H16.4123H16.4108H16.4093H16.4077H16.4062H16.4046H16.4031H16.4015H16.4H16.3984H16.3969H16.3953H16.3938H16.3922H16.3907H16.3891H16.3876H16.386H16.3845H16.383H16.3814H16.3799H16.3783H16.3768H16.3752H16.3737H16.3721H16.3706H16.369H16.3675H16.3659H16.3644H16.3628H16.3613H16.3598H16.3582H16.3567H16.3551H16.3536H16.352H16.3505H16.3489H16.3474H16.3458H16.3443H16.3427H16.3412H16.3396H16.3381H16.3365H16.335H16.3335H16.3319H16.3304H16.3288H16.3273H16.3257H16.3242H16.3226H16.3211H16.3195H16.318H16.3164H16.3149H16.3133H16.3118H16.3103H16.3087H16.3072H16.3056H16.3041H16.3025H16.301H16.2994H16.2979H16.2963H16.2948H16.2932H16.2917H16.2901H16.2886H16.287H16.2855H16.284H16.2824H16.2809H16.2793H16.2778H16.2762H16.2747H16.2731H16.2716H16.27H16.2685H16.2669H16.2654H16.2638H16.2623H16.2608H16.2592H16.2577H16.2561H16.2546H16.253H16.2515H16.2499H16.2484H16.2468H16.2453H16.2437H16.2422H16.2406H16.2391H16.2375H16.236H16.2345H16.2329H16.2314H16.2298H16.2283H16.2267H16.2252H16.2236H16.2221H16.2205H16.219H16.2174H16.2159H16.2143H16.2128H16.2113H16.2097H16.2082H16.2066H16.2051H16.2035H16.202H16.2004H16.1989H16.1973H16.1958H16.1942H16.1927H16.1911H16.1896H16.188H16.1865H16.185H16.1834H16.1819H16.1803H16.1788H16.1772H16.1757H16.1741H16.1726H16.171H16.1695H16.1679H16.1664H16.1648H16.1633H16.1618H16.1602H16.1587H16.1571H16.1556H16.154H16.1525H16.1509H16.1494H16.1478H16.1463H16.1447H16.1432H16.1416H16.1401H16.1385H16.137H16.1355H16.1339H16.1324H16.1308H16.1293H16.1277H16.1262H16.1246H16.1231H16.1215H16.12H16.1184H16.1169H16.1153H16.1138H16.1123H16.1107H16.1092H16.1076H16.1061H16.1045H16.103H16.1014H16.0999H16.0983H16.0968H16.0952H16.0937H16.0921H16.0906H16.089H16.0875H16.086H16.0844H16.0829H16.0813H16.0798H16.0782H16.0767H16.0751H16.0736H16.072H16.0705H16.0689H16.0674H16.0658H16.0643H16.0628H16.0612H16.0597H16.0581H16.0566H16.055H16.0535H16.0519H16.0504H16.0488H16.0473H16.0457H16.0442H16.0426H16.0411H16.0395H16.038H16.0365H16.0349H16.0334H16.0318H16.0303H16.0287H16.0272H16.0256H16.0241H16.0225H16.021H16.0194H16.0179H16.0163H16.0148H16.0133H16.0117H16.0102H16.0086H16.0071H16.0055H16.004H16.0024H16.0009H15.9993H15.9978H15.9962H15.9947H15.9931H15.9916H15.99H15.9885H15.987H15.9854H15.9839H15.9823H15.9808H15.9792H15.9777H15.9761H15.9746H15.973H15.9715H15.9699H15.9684H15.9668H15.9653H15.9638H15.9622H15.9607H15.9591H15.9576H15.956H15.9545H15.9529H15.9514H15.9498H15.9483H15.9467H15.9452H15.9436H15.9421H15.9405H15.939H15.9375H15.9359H15.9344H15.9328H15.9313H15.9297H15.9282H15.9266H15.9251H15.9235H15.922H15.9204H15.9189H15.9173H15.9158H15.9143H15.9127H15.9112H15.9096H15.9081H15.9065H15.905H15.9034H15.9019H15.9003H15.8988H15.8972H15.8957H15.8941H15.8926H15.891H15.8895H15.888H15.8864H15.8849H15.8833H15.8818H15.8802H15.8787H15.8771H15.8756H15.874H15.8725H15.8709H15.8694H15.8678H15.8663H15.8657C14.4862 32.0196 13.1467 31.5992 11.9777 30.8636L11.7152 30.6984L11.4053 30.7108C10.7292 30.7376 10.0567 30.823 9.39527 30.9658C8.73182 31.1044 8.07823 31.2866 7.43874 31.5112C6.29746 31.8723 5.24733 32.4751 4.35989 33.2787L4.33395 33.3022L4.30971 33.3274C2.71168 34.992 1.67534 37.2559 0.990737 39.6799C0.303676 42.1127 -0.0497986 44.7819 -0.232347 47.3285L-0.232424 47.3295C-0.305721 48.3679 -0.348222 49.3964 -0.378424 50.3689L-0.410444 51.4H0.621094H33.3811H34.3811V50.4C34.3811 49.3919 34.3062 48.3434 34.2284 47.3269C34.0488 44.7714 33.6938 42.0861 33.0015 39.6431C32.3116 37.2086 31.2651 34.9365 29.6501 33.2848Z" fill="#142065" stroke="#667CFF" stroke-width="2"/>
<path fill-rule="evenodd" clip-rule="evenodd" d="M25.9346 15.3481C25.2266 11.4781 21.2486 8.50806 17.0006 8.52006C12.7526 8.53206 8.77456 11.4781 8.06656 15.3481C7.88656 16.3321 7.56256 19.0681 9.05056 24.7081C9.91456 27.9781 12.7526 30.6001 17.0006 30.6001C21.2486 30.6001 24.0866 27.9841 24.9506 24.7141C26.4386 19.0681 26.1146 16.3321 25.9346 15.3481Z" fill="#142065"/>
</g>
<defs>
<clipPath id="clip0_3736_1067">
<rect width="60" height="60" fill="white"/>
</clipPath>
</defs>
</svg>
