<svg width="100" height="100" viewBox="0 0 100 100" fill="none" xmlns="http://www.w3.org/2000/svg">
<path d="M8.39927 23.7053L36.0508 29.5144C36.1538 29.5356 36.2568 29.5447 36.3629 29.5447C36.4629 29.5447 36.5659 29.5326 36.6659 29.5144L60.6053 24.6447V35.9447L57.5811 49.4144C57.4811 49.8629 57.5872 50.3349 57.8788 50.6963C58.1697 51.0546 58.5993 51.2659 59.0659 51.2659H65.1508C65.6106 51.2659 66.0447 51.0629 66.3356 50.6963C66.6265 50.3387 66.7265 49.872 66.6326 49.4205L63.6356 35.9478V24.0296L65.2053 23.7144C65.9084 23.569 66.4175 22.9447 66.4114 22.2235C66.4114 21.5053 65.8962 20.8841 65.194 20.7417L36.6538 15.1811C36.4599 15.1447 36.2599 15.1447 36.0659 15.1872L8.41442 20.7447C7.71139 20.8872 7.2023 21.5023 7.19927 22.2205C7.19321 22.9356 7.69624 23.5569 8.39927 23.7053Z" fill="#142065"/>
<path d="M49.9725 52.5871C52.1604 52.0447 54.5453 50.4417 54.5453 48.2295V42.1689C54.5453 40.7811 54.5453 38.3477 51.515 37.7568V36.3053C47.1059 37.3871 41.8271 38.0114 36.3635 38.0114C30.8968 38.0114 25.618 37.3932 21.2119 36.3053V38.2204C20.0119 38.9144 18.1816 40.2811 18.1816 42.175V48.2356C18.1816 50.4447 20.5665 52.0508 22.7544 52.5901C23.1574 61.9295 27.8119 70.9629 36.3635 70.9629C44.915 70.9629 49.5695 61.9235 49.9725 52.5871Z" fill="#142065"/>
<path d="M51.5159 30.0477V29.5871L37.2705 32.4841C36.9705 32.5507 36.6644 32.575 36.3644 32.575C36.0493 32.575 35.7371 32.5416 35.4311 32.478L21.2129 29.4932V33.1871C29.819 35.4629 42.9038 35.4629 51.5159 33.1901V30.0477Z" fill="#142065"/>
<path d="M72.7273 81.5658C72.7273 81.459 72.7182 81.3545 72.697 81.2507C72.1636 72.8537 64.9939 66.4143 55.9364 66.4143H55.9189L37.2455 79.7719C36.9818 79.9567 36.6727 80.0507 36.3636 80.0507C36.0515 80.0507 35.7424 79.9567 35.4788 79.7658L16.9364 66.4143H16.6667C7.51515 66.4143 0.533333 72.7295 0.030303 81.2681C0.0121212 81.3628 0 81.459 0 81.5658V83.081C0 83.9143 0.678788 84.5961 1.51515 84.5961H71.2121C72.0455 84.5961 72.7273 83.9143 72.7273 83.081V82.6848C72.7705 82.5476 72.7909 82.4052 72.7909 82.2514C72.7909 82.109 72.7667 81.9567 72.7273 81.8264V81.5658Z" fill="#142065"/>
<path d="M66.666 32.0538V34.4387C71.4751 34.2417 76.1478 33.5932 79.9842 32.4326C79.6259 31.9023 79.2418 31.3811 78.7872 30.878V29.5841L66.666 32.0538Z" fill="#142065"/>
<path d="M69.4453 22.2083C69.4514 24.0598 68.3264 25.7083 66.6665 26.4144V28.9629L87.8786 24.6477V35.9477L85.4385 46.8113C84.4203 44.8295 83.5514 42.9386 83.29 41.8477L83.018 40.6598C82.596 38.8295 82.1665 36.9689 81.4362 35.175C77.3332 36.4901 72.3392 37.2871 67.0998 37.5447L69.587 48.7568C69.887 50.1113 69.5635 51.5053 68.696 52.5901C67.8233 53.6689 66.5332 54.2962 65.1506 54.2962H59.0597C57.7453 54.2962 56.5354 53.7235 55.6718 52.7507C54.8741 53.5788 53.9051 54.2598 52.8385 54.7629C52.6332 56.7235 52.2286 58.6932 51.6445 60.581L54.1142 63.9659L54.9354 63.3871H55.9051C60.79 63.3871 65.2112 64.9962 68.6438 67.7023C82.5567 66.0447 87.8529 57.7538 89.2226 55.0113C89.4536 54.5507 89.4286 53.9992 89.1657 53.5598C88.8324 52.9932 88.3567 52.1901 87.8385 51.2629H92.4082C92.868 51.2629 93.3021 51.0575 93.5923 50.6932C93.8832 50.3348 93.9892 49.8689 93.8892 49.4174L90.9021 35.9447V24.0235L92.4718 23.7083C93.1748 23.5629 93.6809 22.9386 93.6779 22.2204C93.6748 21.4992 93.1627 20.878 92.4597 20.7386L63.918 15.181C63.7271 15.1416 63.5294 15.1416 63.3354 15.181L58.0089 16.2538L65.7695 17.7629C67.8839 18.178 69.4362 20.0447 69.4453 22.2083Z" fill="#142065"/>
<path d="M78.1519 71.7175L76.6095 69.0175C75.0307 69.5637 73.2769 70 71.4004 70.3447C73.8489 73.2387 75.4186 76.8606 75.7034 80.897C75.7337 81.097 75.7519 81.3061 75.7549 81.5061C75.7943 81.7546 75.8186 82.0031 75.8186 82.2515C75.8186 82.5 75.7943 82.7485 75.7549 82.997V83.0697C75.7549 83.6023 75.6451 84.1053 75.4761 84.5849H98.4822C99.3186 84.5849 99.9974 83.9 99.9974 83.0697V81.5546C100 72.0417 86.8428 71.7296 78.1519 71.7175Z" fill="#142065"/>
</svg>
