<svg width="100" height="100" viewBox="0 0 100 100" fill="none" xmlns="http://www.w3.org/2000/svg">
<path d="M50 21.4356C45.075 17.2006 37.935 16.5706 31.435 17.2206C23.865 17.9856 16.225 20.5806 11.465 22.7456C11.0282 22.9443 10.6579 23.2644 10.3981 23.6678C10.1383 24.0712 10.0001 24.5408 10 25.0206V80.0206C10.0001 80.4389 10.1052 80.8505 10.3056 81.2177C10.506 81.5848 10.7953 81.8959 11.1471 82.1222C11.4988 82.3486 11.9017 82.4831 12.3189 82.5134C12.7361 82.5437 13.1542 82.4688 13.535 82.2956C17.945 80.2957 25.05 77.8907 31.935 77.1957C38.98 76.4857 44.885 77.6306 48.05 81.5807C48.2843 81.8726 48.5811 82.1083 48.9186 82.2702C49.2561 82.4321 49.6257 82.5162 50 82.5162C50.3743 82.5162 50.7439 82.4321 51.0814 82.2702C51.4189 82.1083 51.7157 81.8726 51.95 81.5807C55.115 77.6306 61.02 76.4857 68.06 77.1957C74.95 77.8907 82.06 80.2957 86.465 82.2956C86.8458 82.4688 87.2639 82.5437 87.6811 82.5134C88.0983 82.4831 88.5012 82.3486 88.8529 82.1222C89.2047 81.8959 89.494 81.5848 89.6944 81.2177C89.8948 80.8505 89.9999 80.4389 90 80.0206V25.0206C89.9999 24.5408 89.8617 24.0712 89.6019 23.6678C89.3421 23.2644 88.9718 22.9443 88.535 22.7456C83.775 20.5806 76.135 17.9856 68.565 17.2206C62.065 16.5656 54.925 17.2006 50 21.4356Z" fill="#142065"/>
<path d="M47.7656 64.6055C45.8125 64.6055 44.0807 64.3711 42.5703 63.9023C41.0599 63.4206 39.7839 62.7109 38.7422 61.7734C37.7135 60.8359 36.9323 59.6771 36.3984 58.2969C35.8646 56.9167 35.5977 55.3151 35.5977 53.4922V34.918H42.9023V53.0625C42.9023 55.0807 43.2799 56.5846 44.0352 57.5742C44.8034 58.5638 46.0469 59.0586 47.7656 59.0586C49.4453 59.0586 50.6758 58.5833 51.457 57.6328C52.2513 56.6823 52.6484 55.1589 52.6484 53.0625V34.918H59.9531V52.125L65.6953 56.6367V64L59.0742 58.4922C58.2669 60.4974 56.9258 62.0208 55.0508 63.0625C53.1758 64.0911 50.7474 64.6055 47.7656 64.6055Z" fill="#667CFF"/>
</svg>
