<svg width="18" height="18" viewBox="0 0 18 18" fill="none" xmlns="http://www.w3.org/2000/svg">
<path d="M10.1967 13.9913C10.0914 13.8858 10.0322 13.7429 10.0322 13.5938C10.0322 13.4447 10.0914 13.3018 10.1967 13.1963L13.9242 9.46879L3.09424 9.46879C2.94506 9.46879 2.80199 9.40953 2.6965 9.30404C2.59101 9.19855 2.53174 9.05548 2.53174 8.90629C2.53174 8.75711 2.59101 8.61404 2.6965 8.50855C2.80199 8.40306 2.94506 8.34379 3.09424 8.34379L13.9242 8.3438L10.1967 4.6163C10.1227 4.54754 10.0686 4.46009 10.0401 4.36315C10.0116 4.26622 10.0097 4.16338 10.0347 4.06549C10.0598 3.9676 10.1107 3.87827 10.1823 3.80691C10.2538 3.73556 10.3433 3.68482 10.4412 3.66005C10.539 3.63498 10.6418 3.63673 10.7386 3.66511C10.8355 3.69348 10.9229 3.74744 10.9917 3.8213L15.6792 8.5088C15.7846 8.61426 15.8437 8.75723 15.8437 8.90629C15.8437 9.05536 15.7846 9.19833 15.6792 9.30379L10.9917 13.9913C10.8863 14.0966 10.7433 14.1558 10.5942 14.1558C10.4452 14.1558 10.3022 14.0966 10.1967 13.9913Z" fill="white"/>
</svg>
