<svg width="100" height="100" viewBox="0 0 100 100" fill="none" xmlns="http://www.w3.org/2000/svg">
<path d="M11 39.5C11 35.358 14.358 32 18.5 32C22.642 32 26 35.358 26 39.5C26 43.642 22.642 47 18.5 47C14.358 47 11 43.642 11 39.5Z" fill="#142065"/>
<path d="M92 39.5C92 43.642 88.642 47 84.5 47C80.358 47 77 43.642 77 39.5C77 35.358 80.358 32 84.5 32C88.642 32 92 35.358 92 39.5Z" fill="#142065"/>
<path d="M86 81.5V90.5C86 91.328 85.328 92 84.5 92H69.5C68.672 92 68 91.328 68 90.5V81.5C68 79.843 69.343 78.5 71 78.5H83C84.657 78.5 86 79.843 86 81.5Z" fill="#142065"/>
<path d="M76.5714 74H64.5424L61.9594 89.494C61.6864 91.13 60.1374 92.231 58.5064 91.959C56.8734 91.687 55.7684 90.141 56.0414 88.506L59.0414 70.506C59.2824 69.06 60.5344 68 62.0004 68H70.3324L74.1374 54.682C74.9994 51.665 77.9554 49.535 81.0444 50.091C84.5964 50.731 86.7364 54.265 85.7694 57.648L82.3404 69.648C81.6044 72.224 79.2504 74 76.5714 74Z" fill="#142065"/>
<path d="M26.002 81.5V90.5C26.002 91.328 25.33 92 24.502 92H9.50195C8.67395 92 8.00195 91.328 8.00195 90.5V81.5C8.00195 79.843 9.34495 78.5 11.002 78.5H23.002C24.658 78.5 26.002 79.843 26.002 81.5Z" fill="#142065"/>
<path d="M34.9596 70.507L37.9596 88.507C38.2316 90.142 37.1276 91.687 35.4946 91.96C33.8646 92.232 32.3146 91.131 32.0416 89.495L29.4586 74H17.4296C14.7506 74 12.3966 72.224 11.6606 69.648L8.23263 57.648C7.26563 54.265 9.40462 50.731 12.9566 50.091C16.0446 49.535 19.0016 51.664 19.8636 54.682L20.1506 55.687L28.0746 53.119C29.6466 52.606 31.3426 53.471 31.8526 55.048C32.3636 56.624 31.4996 58.316 29.9236 58.826L21.7996 61.459L23.6686 68H32.0006C33.4666 68 34.7176 69.06 34.9596 70.507Z" fill="#142065"/>
<path d="M68 29V11C68 9.343 66.657 8 65 8H35C33.343 8 32 9.343 32 11V38.827C32 39.629 32.969 40.03 33.536 39.463L41 32H65C66.657 32 68 30.657 68 29ZM41 23C39.343 23 38 21.657 38 20C38 18.343 39.343 17 41 17C42.657 17 44 18.343 44 20C44 21.657 42.657 23 41 23ZM50 23C48.343 23 47 21.657 47 20C47 18.343 48.343 17 50 17C51.657 17 53 18.343 53 20C53 21.657 51.657 23 50 23ZM59 23C57.343 23 56 21.657 56 20C56 18.343 57.343 17 59 17C60.657 17 62 18.343 62 20C62 21.657 60.657 23 59 23Z" fill="#142065"/>
</svg>
