<svg width="100" height="100" viewBox="0 0 100 100" fill="none" xmlns="http://www.w3.org/2000/svg">
<path fill-rule="evenodd" clip-rule="evenodd" d="M39.6997 29.06C38.5097 23.36 31.8597 18.99 24.6997 19C17.5397 19.01 10.9997 23.33 9.77972 29.06C9.47972 30.51 8.93972 34.54 11.4397 42.85C12.8797 47.66 17.6297 51.52 24.7397 51.52C31.8497 51.52 36.5997 47.66 38.0497 42.85C40.5397 34.54 39.9997 30.51 39.6997 29.06Z" fill="#142065"/>
<path fill-rule="evenodd" clip-rule="evenodd" d="M39.4365 58.0643C38.0664 57.0431 36.4143 56.3329 34.6339 56C31.8611 58.142 28.2114 59.2775 24.4654 59.1636C20.7247 59.2748 17.0803 58.1429 14.3068 56.0084C12.5183 56.3501 10.8599 57.0687 9.48445 58.0979C5.17595 62.0336 4.19764 73.7147 4 80H45C44.8024 73.6895 43.8043 61.9832 39.4365 58.0643Z" fill="#142065"/>
<path fill-rule="evenodd" clip-rule="evenodd" d="M86.2553 58.0607C84.8591 57.0416 83.1745 56.3326 81.3587 56C78.5215 58.138 74.7898 59.2713 70.9596 59.1581C67.126 59.2735 63.3901 58.14 60.5505 56C58.7322 56.3458 57.0482 57.066 55.6538 58.0942C51.2115 62.0314 50.2019 73.7089 50 80H92C91.7476 73.6838 90.7279 61.9812 86.2553 58.0607Z" fill="#142065"/>
<path d="M90.4803 34.13C89.1312 33.7731 87.7313 33.648 86.3403 33.76C86.5015 32.199 86.4375 30.6229 86.1503 29.08C85.4616 26.3284 83.7853 23.926 81.4403 22.33C79.7253 21.0847 77.7919 20.1722 75.7403 19.64C74.2465 19.2394 72.7069 19.0343 71.1603 19.03C69.3776 19.0323 67.605 19.2985 65.9003 19.82C63.607 20.5098 61.4914 21.6904 59.7003 23.28C57.9324 24.7992 56.6928 26.8407 56.1603 29.11C55.8912 30.6451 55.8373 32.2101 56.0003 33.76C54.6126 33.6474 53.2159 33.7725 51.8703 34.13C49.4903 34.77 45.2603 38.06 46.6003 43.35C47.1603 45.55 50.7003 48.21 53.1803 49.73C51.7903 45.83 52.0003 42.44 53.0003 40.33C53.7354 38.8924 54.9331 37.7441 56.4003 37.07C56.757 39.0465 57.2312 41 57.8203 42.92C57.8903 43.15 57.9703 43.37 58.0503 43.59C59.7303 48.1 64.3603 51.59 71.1603 51.59C77.9603 51.59 82.6003 48.06 84.2703 43.53C84.3503 43.32 84.4303 43.11 84.4903 42.89C85.0775 40.9687 85.5549 39.0156 85.9203 37.04C87.3895 37.7223 88.5844 38.8819 89.3103 40.33C90.3103 42.46 90.5303 45.85 89.1603 49.75C91.6403 48.23 95.1603 45.57 95.7403 43.37C97.0803 38.06 92.8503 34.77 90.4803 34.13Z" fill="#142065"/>
</svg>
